<svg width="6485" height="675" viewBox="0 0 6485 675" fill="none" xmlns="http://www.w3.org/2000/svg">
<path d="M144.047 86.4283H6338.07" stroke="#FF0091" stroke-width="3"/>
<path d="M5412.8 100.833C5420.75 100.833 5427.2 94.3836 5427.2 86.4281C5427.2 78.4726 5420.75 72.0234 5412.8 72.0234C5404.84 72.0234 5398.39 78.4726 5398.39 86.4281C5398.39 94.3836 5404.84 100.833 5412.8 100.833Z" fill="#FF0091"/>
<path d="M5436.17 100.833C5444.13 100.833 5450.58 94.3836 5450.58 86.4281C5450.58 78.4726 5444.13 72.0234 5436.17 72.0234C5428.21 72.0234 5421.77 78.4726 5421.77 86.4281C5421.77 94.3836 5428.21 100.833 5436.17 100.833Z" fill="#FF0091"/>
<path d="M5872.78 100.833C5880.74 100.833 5887.19 94.3836 5887.19 86.4281C5887.19 78.4726 5880.74 72.0234 5872.78 72.0234C5864.83 72.0234 5858.38 78.4726 5858.38 86.4281C5858.38 94.3836 5864.83 100.833 5872.78 100.833Z" fill="#FF0091"/>
<path d="M6009.27 100.833C6017.23 100.833 6023.68 94.3836 6023.68 86.4281C6023.68 78.4726 6017.23 72.0234 6009.27 72.0234C6001.32 72.0234 5994.87 78.4726 5994.87 86.4281C5994.87 94.3836 6001.32 100.833 6009.27 100.833Z" fill="#FF0091"/>
<path d="M6194.02 100.833C6201.98 100.833 6208.43 94.3836 6208.43 86.4281C6208.43 78.4726 6201.98 72.0234 6194.02 72.0234C6186.07 72.0234 6179.62 78.4726 6179.62 86.4281C6179.62 94.3836 6186.07 100.833 6194.02 100.833Z" fill="#FF0091"/>
<path d="M5321.55 100.833C5329.51 100.833 5335.96 94.3836 5335.96 86.4281C5335.96 78.4726 5329.51 72.0234 5321.55 72.0234C5313.6 72.0234 5307.15 78.4726 5307.15 86.4281C5307.15 94.3836 5313.6 100.833 5321.55 100.833Z" fill="#FF0091"/>
<path d="M2865.52 100.833C2873.48 100.833 2879.92 94.3836 2879.92 86.4281C2879.92 78.4726 2873.48 72.0234 2865.52 72.0234C2857.56 72.0234 2851.12 78.4726 2851.12 86.4281C2851.12 94.3836 2857.56 100.833 2865.52 100.833Z" fill="#FF0091"/>
<path d="M144.047 100.833C152.003 100.833 158.452 94.3836 158.452 86.4281C158.452 78.4726 152.003 72.0234 144.047 72.0234C136.092 72.0234 129.643 78.4726 129.643 86.4281C129.643 94.3836 136.092 100.833 144.047 100.833Z" fill="#FF0091"/>
<path d="M5412.8 86.4281C5412.8 187.261 3557.96 187.261 3557.96 288.094V316.903C3557.96 417.736 3557.96 417.736 3557.96 518.569" stroke="#FF0091" stroke-width="2"/>
<path d="M5436.18 86.4281C5436.18 187.261 4252.27 187.261 4252.27 288.094" stroke="#FF0091" stroke-width="2"/>
<path d="M5872.79 86.4281C5872.79 187.261 4946.58 187.261 4946.58 288.094V316.903C4946.58 417.736 4946.58 417.736 4946.58 518.569" stroke="#FF0091" stroke-width="2"/>
<path d="M6009.28 86.4281C6009.28 187.261 5640.89 187.261 5640.89 288.094" stroke="#FF0091" stroke-width="2"/>
<path d="M6194.02 86.4281C6194.02 187.261 6335.19 187.261 6335.19 288.094V316.903C6335.19 417.736 6222.83 417.736 6222.83 518.569" stroke="#FF0091" stroke-width="2"/>
<path d="M5321.56 86.4281C5321.56 187.261 2863.66 187.261 2863.66 288.094" stroke="#FF0091" stroke-width="2"/>
<path d="M2865.52 86.4281C2865.52 187.261 2169.35 187.261 2169.35 288.094V316.903C2169.35 417.736 2169.35 417.736 2169.35 518.569" stroke="#FF0091" stroke-width="2"/>
<path d="M144.051 86.4281C144.051 187.261 230.479 187.261 230.479 288.094" stroke="#FF0091" stroke-width="2"/>
<path d="M3499.1 632.7H3489.89V628.529H3499.1V632.7ZM3484.39 625.304C3484.39 630.034 3483.59 634.262 3481.98 637.989C3480.38 641.715 3477.98 644.381 3474.8 645.987L3471.71 641.816C3474.54 640.468 3476.68 638.29 3478.11 635.28C3479.57 632.27 3480.31 628.944 3480.31 625.304V620.058H3484.39V625.304ZM3485.42 625.304C3485.42 628.887 3486.12 632.126 3487.53 635.022C3488.93 637.917 3491.01 639.995 3493.76 641.257L3490.75 645.385C3487.6 643.808 3485.25 641.257 3483.7 637.731C3482.18 634.176 3481.42 630.034 3481.42 625.304V620.058H3485.42V625.304ZM3501.63 653.254H3496.6V617.306H3501.63V653.254ZM3532.96 638.032H3527.93V617.306H3532.96V638.032ZM3537.56 629.905H3531.54V625.734H3537.56V629.905ZM3523.24 619.671C3523.24 624.429 3521.84 628.457 3519.03 631.754C3516.25 635.05 3512.25 637.444 3507.03 638.935L3505.05 634.85C3509.21 633.674 3512.38 631.983 3514.56 629.776C3516.76 627.568 3517.87 625.046 3517.87 622.208V619.671H3523.24ZM3520.92 623.799H3506.69V619.671H3520.92V623.799ZM3521.57 638.505C3523.92 638.505 3525.98 638.806 3527.76 639.408C3529.53 640.01 3530.91 640.87 3531.89 641.988C3532.86 643.106 3533.35 644.41 3533.35 645.901C3533.35 647.363 3532.86 648.653 3531.89 649.771C3530.91 650.889 3529.53 651.749 3527.76 652.351C3525.98 652.953 3523.92 653.254 3521.57 653.254C3519.24 653.254 3517.18 652.953 3515.37 652.351C3513.57 651.749 3512.16 650.889 3511.16 649.771C3510.18 648.653 3509.7 647.363 3509.7 645.901C3509.7 644.41 3510.18 643.106 3511.16 641.988C3512.16 640.87 3513.55 640.01 3515.33 639.408C3517.14 638.806 3519.21 638.505 3521.57 638.505ZM3521.57 642.504C3519.39 642.504 3517.7 642.805 3516.49 643.407C3515.29 643.98 3514.69 644.811 3514.69 645.901C3514.69 646.961 3515.29 647.793 3516.49 648.395C3517.72 648.968 3519.42 649.255 3521.57 649.255C3523.72 649.255 3525.38 648.968 3526.55 648.395C3527.76 647.793 3528.36 646.961 3528.36 645.901C3528.36 644.811 3527.76 643.98 3526.55 643.407C3525.38 642.805 3523.72 642.504 3521.57 642.504ZM3568.5 653.211H3563.77V617.306H3568.5V653.211ZM3564.89 635.237H3559.04V631.109H3564.89V635.237ZM3560.59 651.448H3555.9V617.951H3560.59V651.448ZM3541.75 640.827C3544.33 640.827 3546.53 640.769 3548.33 640.655C3550.14 640.54 3551.99 640.311 3553.88 639.967L3554.27 644.181C3552.32 644.553 3550.4 644.797 3548.51 644.912C3546.64 645.026 3544.39 645.084 3541.75 645.084H3539.35V640.827H3541.75ZM3552.29 625.605H3544.38V642.891H3539.35V621.477H3552.29V625.605ZM3592.13 624.487H3571.45V620.488H3592.13V624.487ZM3581.81 625.691C3583.47 625.691 3584.95 625.977 3586.24 626.551C3587.56 627.095 3588.58 627.869 3589.29 628.873C3590.04 629.847 3590.41 630.98 3590.41 632.27C3590.41 633.56 3590.04 634.706 3589.29 635.71C3588.58 636.713 3587.56 637.501 3586.24 638.075C3584.95 638.619 3583.47 638.892 3581.81 638.892C3580.15 638.892 3578.66 638.619 3577.34 638.075C3576.02 637.501 3574.99 636.713 3574.24 635.71C3573.53 634.706 3573.17 633.56 3573.17 632.27C3573.17 630.98 3573.54 629.847 3574.29 628.873C3575.03 627.869 3576.05 627.095 3577.34 626.551C3578.66 625.977 3580.15 625.691 3581.81 625.691ZM3581.81 629.518C3580.66 629.518 3579.75 629.761 3579.06 630.249C3578.4 630.707 3578.07 631.381 3578.07 632.27C3578.07 633.158 3578.4 633.832 3579.06 634.291C3579.75 634.749 3580.66 634.979 3581.81 634.979C3582.96 634.979 3583.86 634.749 3584.52 634.291C3585.21 633.832 3585.55 633.158 3585.55 632.27C3585.55 631.381 3585.21 630.707 3584.52 630.249C3583.86 629.761 3582.96 629.518 3581.81 629.518ZM3599.14 639.838H3594.11V617.306H3599.14V639.838ZM3603.78 630.808H3597.72V626.594H3603.78V630.808ZM3599.14 653.211H3594.11V645.428H3575.66V641.3H3599.14V653.211ZM3584.39 622.767H3579.27V617.177H3584.39V622.767ZM3629.86 624.487H3607.68V620.359H3629.86V624.487ZM3636.31 648.868H3604.54V644.697H3636.31V648.868ZM3616.28 645.987H3611.2V633.431H3616.28V645.987ZM3633.52 623.842C3633.52 626.852 3633.45 629.575 3633.3 632.012C3633.16 634.42 3632.8 637.229 3632.23 640.44L3627.24 639.924C3627.79 636.914 3628.13 634.219 3628.27 631.84C3628.42 629.46 3628.49 626.794 3628.49 623.842V620.359H3633.52V623.842ZM3624.92 645.987H3619.89V633.431H3624.92V645.987ZM3675.01 636.613H3669.98V617.306H3675.01V636.613ZM3656.65 641.429H3670.02V638.161H3675.01V652.824H3651.71V638.161H3656.65V641.429ZM3670.02 648.653V645.385H3656.65V648.653H3670.02ZM3655.96 618.768C3657.74 618.768 3659.35 619.14 3660.78 619.886C3662.24 620.602 3663.39 621.62 3664.22 622.939C3665.05 624.229 3665.47 625.691 3665.47 627.325C3665.47 628.959 3665.05 630.421 3664.22 631.711C3663.39 632.972 3662.24 633.961 3660.78 634.678C3659.35 635.394 3657.74 635.753 3655.96 635.753C3654.16 635.753 3652.52 635.394 3651.06 634.678C3649.6 633.961 3648.45 632.972 3647.62 631.711C3646.79 630.421 3646.37 628.959 3646.37 627.325C3646.37 625.691 3646.79 624.229 3647.62 622.939C3648.45 621.62 3649.6 620.602 3651.06 619.886C3652.52 619.14 3654.16 618.768 3655.96 618.768ZM3655.96 623.068C3654.59 623.068 3653.45 623.455 3652.57 624.229C3651.71 624.974 3651.28 626.006 3651.28 627.325C3651.28 628.615 3651.71 629.632 3652.57 630.378C3653.45 631.123 3654.59 631.496 3655.96 631.496C3657.31 631.496 3658.4 631.123 3659.23 630.378C3660.06 629.632 3660.48 628.615 3660.48 627.325C3660.48 626.006 3660.06 624.974 3659.23 624.229C3658.4 623.455 3657.31 623.068 3655.96 623.068ZM3699.63 624.487H3678.95V620.488H3699.63V624.487ZM3689.31 625.691C3690.97 625.691 3692.45 625.977 3693.74 626.551C3695.06 627.095 3696.08 627.869 3696.79 628.873C3697.54 629.847 3697.91 630.98 3697.91 632.27C3697.91 633.56 3697.54 634.706 3696.79 635.71C3696.08 636.713 3695.06 637.501 3693.74 638.075C3692.45 638.619 3690.97 638.892 3689.31 638.892C3687.65 638.892 3686.16 638.619 3684.84 638.075C3683.52 637.501 3682.49 636.713 3681.74 635.71C3681.03 634.706 3680.67 633.56 3680.67 632.27C3680.67 630.98 3681.04 629.847 3681.79 628.873C3682.53 627.869 3683.55 627.095 3684.84 626.551C3686.16 625.977 3687.65 625.691 3689.31 625.691ZM3689.31 629.518C3688.16 629.518 3687.25 629.761 3686.56 630.249C3685.9 630.707 3685.57 631.381 3685.57 632.27C3685.57 633.158 3685.9 633.832 3686.56 634.291C3687.25 634.749 3688.16 634.979 3689.31 634.979C3690.46 634.979 3691.36 634.749 3692.02 634.291C3692.71 633.832 3693.05 633.158 3693.05 632.27C3693.05 631.381 3692.71 630.707 3692.02 630.249C3691.36 629.761 3690.46 629.518 3689.31 629.518ZM3706.64 639.838H3701.61V617.306H3706.64V639.838ZM3711.28 630.808H3705.22V626.594H3711.28V630.808ZM3706.64 653.211H3701.61V645.428H3683.16V641.3H3706.64V653.211ZM3691.89 622.767H3686.77V617.177H3691.89V622.767Z" fill="#FF0091"/>
<path d="M3474.49 575.569V573.112C3492.76 556.417 3494.97 551.629 3494.78 544.51C3494.59 537.265 3490.62 534.997 3486.15 535.186C3481.68 535.375 3478.72 538.273 3476.89 541.612L3474.43 540.226C3477.08 535.816 3481.8 532.603 3487.16 532.414C3498.37 531.973 3501.96 538.084 3501.96 544.699C3501.96 552.07 3494.65 557.74 3481.99 569.836L3482.05 569.962H3502.28V575.569H3474.49ZM3543.15 554.59C3543.15 567.694 3537.11 576.325 3526.33 576.325C3515.56 576.325 3509.51 567.694 3509.51 554.59C3509.51 541.486 3515.56 532.918 3526.33 532.918C3537.11 532.918 3543.15 541.486 3543.15 554.59ZM3516.69 554.59C3516.69 567.316 3520.22 574.12 3526.33 574.12C3532.44 574.12 3535.97 567.316 3535.97 554.59C3535.97 541.864 3532.44 534.997 3526.33 534.997C3520.22 534.997 3516.69 541.864 3516.69 554.59ZM3549.92 575.569V573.112C3568.19 556.417 3570.4 551.629 3570.21 544.51C3570.02 537.265 3566.05 534.997 3561.58 535.186C3557.1 535.375 3554.14 538.273 3552.32 541.612L3549.86 540.226C3552.5 535.816 3557.23 532.603 3562.58 532.414C3573.8 531.973 3577.39 538.084 3577.39 544.699C3577.39 552.07 3570.08 557.74 3557.42 569.836L3557.48 569.962H3577.7V575.569H3549.92ZM3598.8 532.351V575.569H3592.19V538.525L3586.07 542.557L3584.63 540.352L3597.35 532.351H3598.8ZM3610.43 554.59V551.314H3636.26V554.59H3610.43ZM3677.77 554.59C3677.77 567.694 3671.72 576.325 3660.95 576.325C3650.17 576.325 3644.13 567.694 3644.13 554.59C3644.13 541.486 3650.17 532.918 3660.95 532.918C3671.72 532.918 3677.77 541.486 3677.77 554.59ZM3651.31 554.59C3651.31 567.316 3654.84 574.12 3660.95 574.12C3667.06 574.12 3670.59 567.316 3670.59 554.59C3670.59 541.864 3667.06 534.997 3660.95 534.997C3654.84 534.997 3651.31 541.864 3651.31 554.59ZM3691.23 552.259H3692.24C3696.96 552.259 3702.44 548.353 3702.44 542.872C3702.44 537.58 3699.29 534.871 3695.13 534.871C3691.42 534.871 3688.58 535.69 3685.37 540.352L3683.23 539.092C3685.94 535.375 3689.72 532.477 3696.46 532.477C3705.97 532.477 3709.37 536.761 3709.37 542.62C3709.37 547.471 3704.96 550.81 3699.67 552.637V553.204C3706.16 554.086 3710.95 556.606 3710.95 563.662C3710.95 571.222 3703.89 576.703 3695.57 576.703C3688.33 576.703 3685.94 575.317 3682.22 571.978L3684.05 570.214C3688.08 573.931 3690.85 574.183 3694.69 574.183C3700.49 574.183 3703.39 569.836 3703.39 563.977C3703.39 558.685 3700.87 555.031 3693.37 555.031H3691.23V552.259Z" fill="#FF0091"/>
<path d="M4187.17 394.011H4166.48V390.012H4187.17V394.011ZM4176.85 395.215C4178.51 395.215 4179.98 395.502 4181.27 396.075C4182.59 396.62 4183.61 397.394 4184.33 398.397C4185.07 399.372 4185.45 400.504 4185.45 401.794C4185.45 403.084 4185.07 404.231 4184.33 405.234C4183.61 406.238 4182.59 407.026 4181.27 407.599C4179.98 408.144 4178.51 408.416 4176.85 408.416C4175.18 408.416 4173.69 408.144 4172.37 407.599C4171.06 407.026 4170.02 406.238 4169.28 405.234C4168.56 404.231 4168.2 403.084 4168.2 401.794C4168.2 400.504 4168.58 399.372 4169.32 398.397C4170.07 397.394 4171.08 396.62 4172.37 396.075C4173.69 395.502 4175.18 395.215 4176.85 395.215ZM4176.85 399.042C4175.7 399.042 4174.78 399.286 4174.09 399.773C4173.43 400.232 4173.1 400.906 4173.1 401.794C4173.1 402.683 4173.43 403.357 4174.09 403.815C4174.78 404.274 4175.7 404.503 4176.85 404.503C4177.99 404.503 4178.9 404.274 4179.55 403.815C4180.24 403.357 4180.59 402.683 4180.59 401.794C4180.59 400.906 4180.24 400.232 4179.55 399.773C4178.9 399.286 4177.99 399.042 4176.85 399.042ZM4194.17 409.362H4189.14V386.83H4194.17V409.362ZM4198.82 400.332H4192.76V396.118H4198.82V400.332ZM4194.17 422.735H4189.14V414.952H4170.7V410.824H4194.17V422.735ZM4179.43 392.291H4174.31V386.701H4179.43V392.291ZM4224.9 394.011H4202.71V389.883H4224.9V394.011ZM4231.35 418.392H4199.57V414.221H4231.35V418.392ZM4211.31 415.511H4206.24V402.955H4211.31V415.511ZM4228.55 393.366C4228.55 396.376 4228.48 399.1 4228.34 401.536C4228.2 403.944 4227.84 406.754 4227.26 409.964L4222.28 409.448C4222.82 406.438 4223.17 403.744 4223.31 401.364C4223.45 398.985 4223.52 396.319 4223.52 393.366V389.883H4228.55V393.366ZM4219.95 415.511H4214.92V402.955H4219.95V415.511ZM4272.67 407.642H4240.89V403.6H4272.67V407.642ZM4256.76 409.62C4260.57 409.62 4263.54 410.194 4265.66 411.34C4267.81 412.458 4268.89 414.078 4268.89 416.199C4268.89 418.263 4267.81 419.869 4265.66 421.015C4263.51 422.162 4260.54 422.735 4256.76 422.735C4252.92 422.735 4249.91 422.162 4247.73 421.015C4245.58 419.869 4244.51 418.263 4244.51 416.199C4244.51 414.078 4245.58 412.458 4247.73 411.34C4249.88 410.194 4252.89 409.62 4256.76 409.62ZM4256.76 413.447C4254.35 413.447 4252.56 413.677 4251.39 414.135C4250.24 414.565 4249.67 415.253 4249.67 416.199C4249.67 417.088 4250.25 417.762 4251.43 418.22C4252.6 418.65 4254.38 418.865 4256.76 418.865C4261.46 418.865 4263.81 417.977 4263.81 416.199C4263.81 414.365 4261.46 413.447 4256.76 413.447ZM4256.8 387.604C4259.35 387.604 4261.58 387.891 4263.47 388.464C4265.39 389.038 4266.87 389.855 4267.9 390.915C4268.93 391.947 4269.45 393.18 4269.45 394.613C4269.45 396.821 4268.3 398.555 4266.01 399.816C4263.74 401.049 4260.67 401.665 4256.8 401.665C4252.9 401.665 4249.81 401.049 4247.52 399.816C4245.22 398.555 4244.08 396.821 4244.08 394.613C4244.08 393.18 4244.59 391.947 4245.62 390.915C4246.68 389.855 4248.17 389.038 4250.1 388.464C4252.02 387.891 4254.25 387.604 4256.8 387.604ZM4256.8 391.603C4251.79 391.603 4249.28 392.607 4249.28 394.613C4249.28 395.617 4249.92 396.376 4251.21 396.892C4252.5 397.408 4254.37 397.666 4256.8 397.666C4259.21 397.666 4261.06 397.408 4262.35 396.892C4263.64 396.376 4264.29 395.617 4264.29 394.613C4264.29 393.61 4263.64 392.865 4262.35 392.377C4261.06 391.861 4259.21 391.603 4256.8 391.603ZM4288.13 413.146H4283.1V405.234H4288.13V413.146ZM4303.57 413.963H4298.49V386.873H4303.57V413.963ZM4304.3 422.09H4278.28V418.005H4304.3V422.09ZM4283.31 419.037H4278.28V411.426H4283.31V419.037ZM4275.62 402.74C4280.23 402.654 4284.07 402.54 4287.14 402.396C4290.24 402.253 4293.25 402.009 4296.17 401.665L4296.47 405.32C4290.65 406.324 4283.31 406.825 4274.46 406.825L4273.85 402.783L4275.62 402.74ZM4299.61 411.168H4291.87V407.728H4299.61V411.168ZM4285.16 388.077C4286.85 388.077 4288.36 388.35 4289.68 388.894C4291 389.439 4292.01 390.199 4292.73 391.173C4293.48 392.148 4293.85 393.266 4293.85 394.527C4293.85 396.419 4293.05 397.953 4291.44 399.128C4289.84 400.304 4287.74 400.891 4285.16 400.891C4283.47 400.891 4281.97 400.633 4280.65 400.117C4279.33 399.573 4278.3 398.827 4277.55 397.881C4276.81 396.907 4276.43 395.789 4276.43 394.527C4276.43 393.266 4276.81 392.148 4277.55 391.173C4278.3 390.199 4279.33 389.439 4280.65 388.894C4281.97 388.35 4283.47 388.077 4285.16 388.077ZM4285.16 391.818C4283.96 391.818 4282.98 392.062 4282.24 392.549C4281.52 393.008 4281.16 393.667 4281.16 394.527C4281.16 395.359 4281.52 396.004 4282.24 396.462C4282.96 396.892 4283.93 397.107 4285.16 397.107C4286.34 397.107 4287.28 396.892 4288 396.462C4288.75 396.004 4289.12 395.359 4289.12 394.527C4289.12 393.667 4288.75 393.008 4288 392.549C4287.28 392.062 4286.34 391.818 4285.16 391.818ZM4334.76 412.759H4329.73V386.873H4334.76V412.759ZM4339.45 400.805H4333.3V396.548H4339.45V400.805ZM4311.42 402.74C4315.52 402.74 4318.63 402.683 4320.75 402.568C4322.9 402.425 4324.96 402.124 4326.94 401.665L4327.5 405.793C4325.41 406.223 4323.21 406.51 4320.92 406.653C4318.65 406.797 4315.49 406.868 4311.42 406.868H4308.45V402.74H4311.42ZM4324.19 393.796H4313.48V404.976H4308.45V389.711H4324.19V393.796ZM4335.97 422.09H4312.15V418.005H4335.97V422.09ZM4317.13 420.069H4312.15V410.05H4317.13V420.069ZM4376.3 407.943H4371.23V386.83H4376.3V407.943ZM4380.69 399.558H4374.54V395.258H4380.69V399.558ZM4376.3 417.317H4357.72V420.198H4352.65V414.221H4371.27V412.63H4352.65V409.276H4376.3V417.317ZM4377.46 422.477H4352.65V419.08H4377.46V422.477ZM4361.42 406.266H4356.35V401.192H4361.42V406.266ZM4348.05 404.073C4352.29 404.073 4356.16 404.016 4359.66 403.901C4363.19 403.787 4366.54 403.514 4369.72 403.084L4370.07 406.266C4366.8 406.811 4363.44 407.169 4360 407.341C4356.59 407.485 4352.76 407.556 4348.52 407.556L4348.05 404.073ZM4368.86 392.463H4348.91V389.066H4368.86V392.463ZM4358.89 393.194C4361.47 393.194 4363.53 393.61 4365.08 394.441C4366.63 395.273 4367.4 396.405 4367.4 397.838C4367.4 399.329 4366.63 400.49 4365.08 401.321C4363.56 402.153 4361.49 402.568 4358.89 402.568C4356.25 402.568 4354.16 402.153 4352.61 401.321C4351.06 400.49 4350.29 399.329 4350.29 397.838C4350.29 396.376 4351.06 395.244 4352.61 394.441C4354.16 393.61 4356.25 393.194 4358.89 393.194ZM4358.89 396.376C4356.39 396.376 4355.14 396.864 4355.14 397.838C4355.14 398.842 4356.39 399.343 4358.89 399.343C4361.35 399.343 4362.58 398.842 4362.58 397.838C4362.58 396.864 4361.35 396.376 4358.89 396.376ZM4361.42 391.001H4356.35V386.572H4361.42V391.001ZM4413.39 407.771H4381.48V403.729H4413.39V407.771ZM4399.89 405.32H4394.94V398.311H4399.89V405.32ZM4409.69 400.762H4385.31V396.677H4409.69V400.762ZM4409.56 392.42H4390.34V399.3H4385.31V388.464H4409.56V392.42ZM4397.35 409.577C4401.16 409.577 4404.13 410.151 4406.25 411.297C4408.4 412.444 4409.48 414.078 4409.48 416.199C4409.48 418.263 4408.4 419.869 4406.25 421.015C4404.13 422.191 4401.16 422.778 4397.35 422.778C4393.54 422.778 4390.54 422.191 4388.36 421.015C4386.18 419.869 4385.09 418.263 4385.09 416.199C4385.09 414.078 4386.17 412.444 4388.32 411.297C4390.5 410.151 4393.51 409.577 4397.35 409.577ZM4397.35 413.49C4394.94 413.49 4393.15 413.72 4391.97 414.178C4390.83 414.608 4390.25 415.282 4390.25 416.199C4390.25 417.088 4390.83 417.747 4391.97 418.177C4393.15 418.607 4394.94 418.822 4397.35 418.822C4402.05 418.822 4404.4 417.948 4404.4 416.199C4404.4 414.393 4402.05 413.49 4397.35 413.49ZM4435.49 394.828C4435.49 399.673 4434.64 403.973 4432.95 407.728C4431.26 411.455 4428.72 414.107 4425.34 415.683L4422.37 411.383C4425.33 410.093 4427.55 407.943 4429.04 404.933C4430.56 401.923 4431.32 398.555 4431.32 394.828V389.582H4435.49V394.828ZM4436.48 394.828C4436.48 398.326 4437.21 401.522 4438.67 404.417C4440.16 407.313 4442.33 409.391 4445.16 410.652L4442.2 414.78C4438.96 413.232 4436.51 410.681 4434.84 407.126C4433.18 403.543 4432.35 399.444 4432.35 394.828V389.582H4436.48V394.828ZM4451.96 422.778H4446.88V386.83H4451.96V422.778ZM4467.85 392.764C4467.85 396.319 4467.02 399.458 4465.35 402.181C4463.69 404.876 4461.24 406.754 4458 407.814L4455.42 403.858C4458.2 402.941 4460.28 401.479 4461.66 399.472C4463.03 397.437 4463.72 395.201 4463.72 392.764V390.485H4467.85V392.764ZM4468.88 392.807C4468.88 395.072 4469.54 397.15 4470.86 399.042C4472.2 400.934 4474.23 402.339 4476.92 403.256L4474.38 407.212C4471.2 406.152 4468.79 404.331 4467.16 401.751C4465.55 399.143 4464.75 396.161 4464.75 392.807V390.485H4468.88V392.807ZM4475.72 393.022H4456.71V388.894H4475.72V393.022ZM4483.59 408.502H4478.51V386.83H4483.59V408.502ZM4488.19 399.773H4482.17V395.516H4488.19V399.773ZM4483.59 422.735H4478.51V414.135H4460.11V410.007H4483.59V422.735Z" fill="#FF0091"/>
<path d="M4168.8 345.094V342.637C4187.07 325.942 4189.27 321.154 4189.08 314.035C4188.9 306.79 4184.93 304.522 4180.45 304.711C4175.98 304.9 4173.02 307.798 4171.19 311.137L4168.74 309.751C4171.38 305.341 4176.11 302.128 4181.46 301.939C4192.68 301.498 4196.27 307.609 4196.27 314.224C4196.27 321.595 4188.96 327.265 4176.3 339.361L4176.36 339.487H4196.58V345.094H4168.8ZM4237.46 324.115C4237.46 337.219 4231.41 345.85 4220.64 345.85C4209.87 345.85 4203.82 337.219 4203.82 324.115C4203.82 311.011 4209.87 302.443 4220.64 302.443C4231.41 302.443 4237.46 311.011 4237.46 324.115ZM4211 324.115C4211 336.841 4214.53 343.645 4220.64 343.645C4226.75 343.645 4230.28 336.841 4230.28 324.115C4230.28 311.389 4226.75 304.522 4220.64 304.522C4214.53 304.522 4211 311.389 4211 324.115ZM4244.23 345.094V342.637C4262.5 325.942 4264.7 321.154 4264.51 314.035C4264.32 306.79 4260.35 304.522 4255.88 304.711C4251.41 304.9 4248.45 307.798 4246.62 311.137L4244.16 309.751C4246.81 305.341 4251.53 302.128 4256.89 301.939C4268.1 301.498 4271.69 307.609 4271.69 314.224C4271.69 321.595 4264.39 327.265 4251.72 339.361L4251.79 339.487H4272.01V345.094H4244.23ZM4293.11 301.876V345.094H4286.49V308.05L4280.38 312.082L4278.93 309.877L4291.66 301.876H4293.11ZM4304.74 324.115V320.839H4330.57V324.115H4304.74ZM4372.07 324.115C4372.07 337.219 4366.02 345.85 4355.25 345.85C4344.48 345.85 4338.43 337.219 4338.43 324.115C4338.43 311.011 4344.48 302.443 4355.25 302.443C4366.02 302.443 4372.07 311.011 4372.07 324.115ZM4345.61 324.115C4345.61 336.841 4349.14 343.645 4355.25 343.645C4361.36 343.645 4364.89 336.841 4364.89 324.115C4364.89 311.389 4361.36 304.522 4355.25 304.522C4349.14 304.522 4345.61 311.389 4345.61 324.115ZM4397.11 345.157V335.518H4377.45V330.919L4401.02 301.309H4403.41V330.1H4410.15V335.518H4403.41V345.157H4397.11ZM4381.3 330.1H4397.11V310.255H4396.98L4381.3 330.1Z" fill="#FF0091"/>
<path d="M4892.57 638.118H4860.79V634.076H4892.57V638.118ZM4876.66 640.096C4880.47 640.096 4883.44 640.669 4885.56 641.816C4887.71 642.934 4888.79 644.553 4888.79 646.675C4888.79 648.739 4887.71 650.344 4885.56 651.491C4883.41 652.637 4880.44 653.211 4876.66 653.211C4872.82 653.211 4869.81 652.637 4867.63 651.491C4865.48 650.344 4864.41 648.739 4864.41 646.675C4864.41 644.553 4865.48 642.934 4867.63 641.816C4869.78 640.669 4872.79 640.096 4876.66 640.096ZM4876.66 643.923C4874.25 643.923 4872.46 644.152 4871.29 644.611C4870.14 645.041 4869.57 645.729 4869.57 646.675C4869.57 647.563 4870.15 648.237 4871.33 648.696C4872.5 649.126 4874.28 649.341 4876.66 649.341C4881.36 649.341 4883.71 648.452 4883.71 646.675C4883.71 644.84 4881.36 643.923 4876.66 643.923ZM4876.7 618.08C4879.25 618.08 4881.48 618.366 4883.37 618.94C4885.29 619.513 4886.77 620.33 4887.8 621.391C4888.83 622.423 4889.35 623.655 4889.35 625.089C4889.35 627.296 4888.2 629.03 4885.91 630.292C4883.64 631.524 4880.57 632.141 4876.7 632.141C4872.8 632.141 4869.71 631.524 4867.42 630.292C4865.12 629.03 4863.98 627.296 4863.98 625.089C4863.98 623.655 4864.49 622.423 4865.52 621.391C4866.58 620.33 4868.07 619.513 4870 618.94C4871.92 618.366 4874.15 618.08 4876.7 618.08ZM4876.7 622.079C4871.69 622.079 4869.18 623.082 4869.18 625.089C4869.18 626.092 4869.82 626.852 4871.11 627.368C4872.4 627.884 4874.27 628.142 4876.7 628.142C4879.11 628.142 4880.96 627.884 4882.25 627.368C4883.54 626.852 4884.19 626.092 4884.19 625.089C4884.19 624.085 4883.54 623.34 4882.25 622.853C4880.96 622.337 4879.11 622.079 4876.7 622.079ZM4908.03 643.622H4903V635.71H4908.03V643.622ZM4923.47 644.439H4918.39V617.349H4923.47V644.439ZM4924.2 652.566H4898.18V648.481H4924.2V652.566ZM4903.21 649.513H4898.18V641.902H4903.21V649.513ZM4895.52 633.216C4900.13 633.13 4903.97 633.015 4907.04 632.872C4910.14 632.728 4913.15 632.485 4916.07 632.141L4916.37 635.796C4910.55 636.799 4903.21 637.301 4894.36 637.301L4893.75 633.259L4895.52 633.216ZM4919.51 641.644H4911.77V638.204H4919.51V641.644ZM4905.06 618.553C4906.75 618.553 4908.26 618.825 4909.58 619.37C4910.9 619.914 4911.91 620.674 4912.63 621.649C4913.38 622.623 4913.75 623.741 4913.75 625.003C4913.75 626.895 4912.95 628.428 4911.34 629.604C4909.74 630.779 4907.64 631.367 4905.06 631.367C4903.37 631.367 4901.87 631.109 4900.55 630.593C4899.23 630.048 4898.2 629.303 4897.45 628.357C4896.71 627.382 4896.33 626.264 4896.33 625.003C4896.33 623.741 4896.71 622.623 4897.45 621.649C4898.2 620.674 4899.23 619.914 4900.55 619.37C4901.87 618.825 4903.37 618.553 4905.06 618.553ZM4905.06 622.294C4903.86 622.294 4902.88 622.537 4902.14 623.025C4901.42 623.483 4901.06 624.143 4901.06 625.003C4901.06 625.834 4901.42 626.479 4902.14 626.938C4902.86 627.368 4903.83 627.583 4905.06 627.583C4906.24 627.583 4907.18 627.368 4907.9 626.938C4908.65 626.479 4909.02 625.834 4909.02 625.003C4909.02 624.143 4908.65 623.483 4907.9 623.025C4907.18 622.537 4906.24 622.294 4905.06 622.294ZM4954.67 643.235H4949.63V617.349H4954.67V643.235ZM4959.35 631.281H4953.2V627.024H4959.35V631.281ZM4931.32 633.216C4935.42 633.216 4938.53 633.158 4940.65 633.044C4942.8 632.9 4944.86 632.599 4946.84 632.141L4947.4 636.269C4945.31 636.699 4943.11 636.985 4940.82 637.129C4938.55 637.272 4935.39 637.344 4931.32 637.344H4928.35V633.216H4931.32ZM4944.09 624.272H4933.38V635.452H4928.35V620.187H4944.09V624.272ZM4955.87 652.566H4932.05V648.481H4955.87V652.566ZM4937.04 650.545H4932.05V640.526H4937.04V650.545ZM4986.01 620.058C4986.01 622.351 4985.42 624.487 4984.25 626.465C4983.1 628.443 4981.42 630.105 4979.22 631.453C4977.04 632.8 4974.46 633.703 4971.48 634.162L4969.54 629.991C4972.09 629.675 4974.27 629.002 4976.08 627.97C4977.88 626.938 4979.24 625.719 4980.16 624.315C4981.08 622.91 4981.54 621.491 4981.54 620.058V618.338H4986.01V620.058ZM4986.91 620.058C4986.91 621.52 4987.37 622.953 4988.29 624.358C4989.21 625.734 4990.57 626.938 4992.37 627.97C4994.18 629.002 4996.37 629.675 4998.95 629.991L4997.02 634.162C4994.01 633.703 4991.4 632.8 4989.19 631.453C4987.01 630.105 4985.35 628.443 4984.2 626.465C4983.06 624.487 4982.48 622.351 4982.48 620.058V618.338H4986.91V620.058ZM4986.61 653.211H4981.58V640.096H4986.61V653.211ZM5000.07 640.956H4968.29V636.785H5000.07V640.956ZM5014.41 646.675H5009.47V638.247H5014.41V646.675ZM5025.55 646.675H5020.6V638.204H5025.55V646.675ZM5033.25 649.255H5001.38V645.041H5033.25V649.255ZM5029.63 631.582H5010.07V637.559H5005.04V627.497H5024.6V623.799H5005V619.628H5029.63V631.582ZM5030.41 639.623H5005.04V635.452H5030.41V639.623Z" fill="#FF0091"/>
<path d="M4863.11 575.569V573.112C4881.38 556.417 4883.58 551.629 4883.4 544.51C4883.21 537.265 4879.24 534.997 4874.76 535.186C4870.29 535.375 4867.33 538.273 4865.5 541.612L4863.05 540.226C4865.69 535.816 4870.42 532.603 4875.77 532.414C4886.99 531.973 4890.58 538.084 4890.58 544.699C4890.58 552.07 4883.27 557.74 4870.61 569.836L4870.67 569.962H4890.89V575.569H4863.11ZM4931.77 554.59C4931.77 567.694 4925.72 576.325 4914.95 576.325C4904.18 576.325 4898.13 567.694 4898.13 554.59C4898.13 541.486 4904.18 532.918 4914.95 532.918C4925.72 532.918 4931.77 541.486 4931.77 554.59ZM4905.31 554.59C4905.31 567.316 4908.84 574.12 4914.95 574.12C4921.06 574.12 4924.59 567.316 4924.59 554.59C4924.59 541.864 4921.06 534.997 4914.95 534.997C4908.84 534.997 4905.31 541.864 4905.31 554.59ZM4938.54 575.569V573.112C4956.81 556.417 4959.01 551.629 4958.82 544.51C4958.63 537.265 4954.67 534.997 4950.19 535.186C4945.72 535.375 4942.76 538.273 4940.93 541.612L4938.47 540.226C4941.12 535.816 4945.85 532.603 4951.2 532.414C4962.41 531.973 4966.01 538.084 4966.01 544.699C4966.01 552.07 4958.7 557.74 4946.03 569.836L4946.1 569.962H4966.32V575.569H4938.54ZM4973.05 575.569V573.112C4991.32 556.417 4993.53 551.629 4993.34 544.51C4993.15 537.265 4989.18 534.997 4984.71 535.186C4980.23 535.375 4977.27 538.273 4975.45 541.612L4972.99 540.226C4975.63 535.816 4980.36 532.603 4985.71 532.414C4996.93 531.973 5000.52 538.084 5000.52 544.699C5000.52 552.07 4993.21 557.74 4980.55 569.836L4980.61 569.962H5000.83V575.569H4973.05ZM5009.02 554.59V551.314H5034.85V554.59H5009.02ZM5056.57 532.351V575.569H5049.95V538.525L5043.84 542.557L5042.39 540.352L5055.12 532.351H5056.57ZM5084.25 532.351V575.569H5077.64V538.525L5071.53 542.557L5070.08 540.352L5082.8 532.351H5084.25Z" fill="#FF0091"/>
<path d="M5567.05 394.613C5567.05 397.91 5566.22 400.82 5564.56 403.342C5562.92 405.836 5560.5 407.585 5557.29 408.588L5554.88 404.503C5557.58 403.672 5559.6 402.368 5560.95 400.59C5562.32 398.784 5563.01 396.792 5563.01 394.613V393.366H5567.05V394.613ZM5568 394.613C5568 396.62 5568.67 398.455 5570.02 400.117C5571.4 401.751 5573.43 402.912 5576.13 403.6L5573.8 407.642C5570.56 406.725 5568.11 405.105 5566.45 402.783C5564.79 400.433 5563.96 397.709 5563.96 394.613V393.366H5568V394.613ZM5574.96 394.57H5556.09V390.528H5574.96V394.57ZM5568.04 392.248H5563.01V386.787H5568.04V392.248ZM5580.73 400.547H5574.02V396.376H5580.73V400.547ZM5584.51 411.254H5579.44V386.83H5584.51V411.254ZM5574.49 409.749C5574.49 411.785 5573.96 413.705 5572.9 415.511C5571.84 417.289 5570.28 418.808 5568.21 420.069C5566.18 421.331 5563.74 422.162 5560.9 422.563L5559.1 418.521C5561.42 418.177 5563.41 417.547 5565.07 416.629C5566.77 415.712 5568.03 414.651 5568.86 413.447C5569.72 412.215 5570.15 410.982 5570.15 409.749V409.19H5574.49V409.749ZM5575.35 409.749C5575.35 411.039 5575.75 412.301 5576.56 413.533C5577.39 414.737 5578.63 415.798 5580.3 416.715C5581.96 417.604 5583.99 418.206 5586.4 418.521L5584.55 422.563C5581.69 422.162 5579.24 421.345 5577.2 420.112C5575.19 418.88 5573.66 417.375 5572.6 415.597C5571.57 413.791 5571.05 411.842 5571.05 409.749V409.19H5575.35V409.749ZM5625.62 412.63H5620.54V386.873H5625.62V412.63ZM5626.52 422.09H5602.22V418.005H5626.52V422.09ZM5607.3 419.639H5602.22V410.05H5607.3V419.639ZM5606.48 389.152C5608.26 389.152 5609.88 389.539 5611.34 390.313C5612.8 391.087 5613.95 392.177 5614.78 393.581C5615.64 394.957 5616.07 396.505 5616.07 398.225C5616.07 399.974 5615.64 401.536 5614.78 402.912C5613.95 404.288 5612.8 405.363 5611.34 406.137C5609.88 406.911 5608.26 407.298 5606.48 407.298C5604.7 407.298 5603.08 406.911 5601.62 406.137C5600.19 405.363 5599.04 404.288 5598.18 402.912C5597.35 401.536 5596.93 399.974 5596.93 398.225C5596.93 396.505 5597.35 394.957 5598.18 393.581C5599.04 392.177 5600.2 391.087 5601.66 390.313C5603.13 389.539 5604.73 389.152 5606.48 389.152ZM5606.48 393.624C5605.16 393.624 5604.06 394.04 5603.17 394.871C5602.31 395.703 5601.88 396.821 5601.88 398.225C5601.88 399.659 5602.31 400.791 5603.17 401.622C5604.06 402.425 5605.16 402.826 5606.48 402.826C5607.8 402.826 5608.89 402.425 5609.75 401.622C5610.61 400.791 5611.04 399.659 5611.04 398.225C5611.04 396.821 5610.61 395.703 5609.75 394.871C5608.89 394.04 5607.8 393.624 5606.48 393.624ZM5654.53 400.633H5648V396.548H5654.53V400.633ZM5658.96 413.318H5653.89V386.873H5658.96V413.318ZM5659.74 422.09H5635.66V418.005H5659.74V422.09ZM5640.73 420.886H5635.66V411.082H5640.73V420.886ZM5633.89 404.417C5637.42 404.417 5640.19 404.374 5642.19 404.288C5644.23 404.174 5646.26 403.93 5648.3 403.557L5648.73 407.599C5646.64 408.001 5644.52 408.273 5642.37 408.416C5640.24 408.531 5637.42 408.588 5633.89 408.588H5631.19V404.417H5633.89ZM5647.1 393.71H5636.17V404.804H5631.19V389.582H5647.1V393.71ZM5646.02 400.977H5634.67V396.978H5646.02V400.977ZM5664.58 389.367H5670.3L5669.74 411.039H5665.14L5664.58 389.367ZM5664.4 417.704C5664.4 416.844 5664.68 416.142 5665.22 415.597C5665.79 415.024 5666.55 414.737 5667.5 414.737C5668.42 414.737 5669.15 415.024 5669.69 415.597C5670.27 416.142 5670.55 416.844 5670.55 417.704C5670.55 418.536 5670.27 419.224 5669.69 419.768C5669.15 420.313 5668.42 420.585 5667.5 420.585C5666.55 420.585 5665.79 420.313 5665.22 419.768C5664.68 419.224 5664.4 418.536 5664.4 417.704Z" fill="#FF0091"/>
<path d="M5557.41 345.094V342.637C5575.68 325.942 5577.89 321.154 5577.7 314.035C5577.51 306.79 5573.54 304.522 5569.07 304.711C5564.6 304.9 5561.64 307.798 5559.81 311.137L5557.35 309.751C5560 305.341 5564.72 302.128 5570.08 301.939C5581.29 301.498 5584.88 307.609 5584.88 314.224C5584.88 321.595 5577.57 327.265 5564.91 339.361L5564.97 339.487H5585.2V345.094H5557.41ZM5626.07 324.115C5626.07 337.219 5620.03 345.85 5609.25 345.85C5598.48 345.85 5592.43 337.219 5592.43 324.115C5592.43 311.011 5598.48 302.443 5609.25 302.443C5620.03 302.443 5626.07 311.011 5626.07 324.115ZM5599.61 324.115C5599.61 336.841 5603.14 343.645 5609.25 343.645C5615.36 343.645 5618.89 336.841 5618.89 324.115C5618.89 311.389 5615.36 304.522 5609.25 304.522C5603.14 304.522 5599.61 311.389 5599.61 324.115ZM5632.84 345.094V342.637C5651.11 325.942 5653.32 321.154 5653.13 314.035C5652.94 306.79 5648.97 304.522 5644.5 304.711C5640.02 304.9 5637.06 307.798 5635.24 311.137L5632.78 309.751C5635.42 305.341 5640.15 302.128 5645.5 301.939C5656.72 301.498 5660.31 307.609 5660.31 314.224C5660.31 321.595 5653 327.265 5640.34 339.361L5640.4 339.487H5660.62V345.094H5632.84ZM5674.66 321.784H5675.67C5680.4 321.784 5685.88 317.878 5685.88 312.397C5685.88 307.105 5682.73 304.396 5678.57 304.396C5674.85 304.396 5672.02 305.215 5668.81 309.877L5666.66 308.617C5669.37 304.9 5673.15 302.002 5679.89 302.002C5689.41 302.002 5692.81 306.286 5692.81 312.145C5692.81 316.996 5688.4 320.335 5683.11 322.162V322.729C5689.6 323.611 5694.38 326.131 5694.38 333.187C5694.38 340.747 5687.33 346.228 5679.01 346.228C5671.77 346.228 5669.37 344.842 5665.66 341.503L5667.48 339.739C5671.51 343.456 5674.29 343.708 5678.13 343.708C5683.93 343.708 5686.82 339.361 5686.82 333.502C5686.82 328.21 5684.3 324.556 5676.81 324.556H5674.66V321.784ZM5701.29 324.115V320.839H5727.12V324.115H5701.29ZM5768.62 324.115C5768.62 337.219 5762.58 345.85 5751.8 345.85C5741.03 345.85 5734.98 337.219 5734.98 324.115C5734.98 311.011 5741.03 302.443 5751.8 302.443C5762.58 302.443 5768.62 311.011 5768.62 324.115ZM5742.16 324.115C5742.16 336.841 5745.69 343.645 5751.8 343.645C5757.91 343.645 5761.44 336.841 5761.44 324.115C5761.44 311.389 5757.91 304.522 5751.8 304.522C5745.69 304.522 5742.16 311.389 5742.16 324.115ZM5778.16 324.367V302.821H5801.85V308.239H5780.94V322.162C5784.9 319.894 5788.62 319.453 5791.9 319.453C5800.15 319.453 5805.06 324.997 5805.06 331.801C5805.06 339.676 5799.58 346.228 5788.62 346.228C5785.22 346.228 5780.56 345.283 5776.53 342.196L5777.91 340.369C5782.07 342.952 5784.9 343.456 5788.75 343.456C5792.97 343.456 5797.82 340.684 5797.82 332.62C5797.82 326.194 5794.48 322.288 5789.44 322.288C5785.72 322.288 5782.38 323.359 5780.81 325.123L5778.16 324.367Z" fill="#FF0091"/>
<path d="M6154.51 621.992C6154.51 624.572 6153.92 627.009 6152.75 629.302C6151.6 631.596 6149.92 633.545 6147.72 635.15C6145.54 636.756 6142.97 637.874 6140.02 638.504L6137.83 634.247C6140.35 633.789 6142.54 632.929 6144.4 631.667C6146.27 630.377 6147.67 628.887 6148.62 627.195C6149.59 625.475 6150.08 623.741 6150.08 621.992V619.455H6154.51V621.992ZM6155.46 621.992C6155.46 623.798 6155.93 625.547 6156.87 627.238C6157.85 628.93 6159.27 630.406 6161.13 631.667C6162.99 632.929 6165.22 633.789 6167.8 634.247L6165.6 638.504C6162.65 637.902 6160.08 636.799 6157.91 635.193C6155.73 633.588 6154.05 631.653 6152.88 629.388C6151.73 627.095 6151.16 624.63 6151.16 621.992V619.455H6155.46V621.992ZM6168.91 648.867H6137.05V644.567H6168.91V648.867ZM6200.63 653.21H6195.77V617.305H6200.63V653.21ZM6190.22 634.935H6185.54V630.334H6190.22V634.935ZM6193.58 651.49H6188.8V617.993H6193.58V651.49ZM6186.31 625.475H6170.44V621.39H6186.31V625.475ZM6169.75 640.826C6177.47 640.826 6183.2 640.554 6186.95 640.009L6187.26 643.664C6183.21 644.582 6177.57 645.04 6170.31 645.04L6169.75 640.826ZM6177.06 641.987H6172.59V624.056H6177.06V641.987ZM6184.2 641.987H6179.56V624.056H6184.2V641.987ZM6232.43 643.105H6227.35V617.348H6232.43V643.105ZM6233.33 652.565H6209.04V648.48H6233.33V652.565ZM6214.11 650.114H6209.04V640.525H6214.11V650.114ZM6213.29 619.627C6215.07 619.627 6216.69 620.014 6218.15 620.788C6219.61 621.562 6220.76 622.652 6221.59 624.056C6222.45 625.432 6222.88 626.98 6222.88 628.7C6222.88 630.449 6222.45 632.011 6221.59 633.387C6220.76 634.763 6219.61 635.838 6218.15 636.612C6216.69 637.386 6215.07 637.773 6213.29 637.773C6211.52 637.773 6209.9 637.386 6208.43 636.612C6207 635.838 6205.85 634.763 6204.99 633.387C6204.16 632.011 6203.75 630.449 6203.75 628.7C6203.75 626.98 6204.16 625.432 6204.99 624.056C6205.85 622.652 6207.01 621.562 6208.48 620.788C6209.94 620.014 6211.54 619.627 6213.29 619.627ZM6213.29 624.099C6211.97 624.099 6210.87 624.515 6209.98 625.346C6209.12 626.178 6208.69 627.296 6208.69 628.7C6208.69 630.134 6209.12 631.266 6209.98 632.097C6210.87 632.9 6211.97 633.301 6213.29 633.301C6214.61 633.301 6215.7 632.9 6216.56 632.097C6217.42 631.266 6217.85 630.134 6217.85 628.7C6217.85 627.296 6217.42 626.178 6216.56 625.346C6215.7 624.515 6214.61 624.099 6213.29 624.099ZM6269.88 624.486H6247.69V620.358H6269.88V624.486ZM6276.33 648.867H6244.55V644.696H6276.33V648.867ZM6256.29 645.986H6251.22V633.43H6256.29V645.986ZM6273.53 623.841C6273.53 626.851 6273.46 629.575 6273.32 632.011C6273.17 634.419 6272.82 637.229 6272.24 640.439L6267.26 639.923C6267.8 636.913 6268.14 634.219 6268.29 631.839C6268.43 629.46 6268.5 626.794 6268.5 623.841V620.358H6273.53V623.841ZM6264.93 645.986H6259.9V633.43H6264.93V645.986ZM6305.55 645.341H6300.47V617.305H6305.55V645.341ZM6309.93 633.258H6303.79V629.087H6309.93V633.258ZM6306.71 652.565H6282.11V648.48H6306.71V652.565ZM6287.14 649.641H6282.11V643.535H6287.14V649.641ZM6290.67 639.794H6285.6V634.548H6290.67V639.794ZM6277.3 637.902C6286.41 637.902 6293.64 637.501 6298.97 636.698L6299.31 640.224C6296.1 640.855 6292.79 641.271 6289.38 641.471C6285.97 641.672 6282.1 641.801 6277.77 641.858L6277.3 637.902ZM6298.11 623.884H6278.16V620.186H6298.11V623.884ZM6288.13 624.873C6290.71 624.873 6292.78 625.375 6294.33 626.378C6295.87 627.353 6296.65 628.7 6296.65 630.42C6296.65 632.112 6295.87 633.459 6294.33 634.462C6292.78 635.466 6290.71 635.967 6288.13 635.967C6285.55 635.967 6283.47 635.466 6281.9 634.462C6280.32 633.459 6279.53 632.112 6279.53 630.42C6279.53 628.7 6280.31 627.353 6281.86 626.378C6283.43 625.375 6285.52 624.873 6288.13 624.873ZM6288.13 628.27C6285.64 628.27 6284.39 628.987 6284.39 630.42C6284.39 631.08 6284.71 631.581 6285.34 631.925C6286 632.269 6286.93 632.441 6288.13 632.441C6290.6 632.441 6291.83 631.768 6291.83 630.42C6291.83 628.987 6290.6 628.27 6288.13 628.27ZM6290.67 621.82H6285.6V617.219H6290.67V621.82ZM6331.41 624.486H6310.73V620.487H6331.41V624.486ZM6321.09 625.69C6322.76 625.69 6324.23 625.977 6325.52 626.55C6326.84 627.095 6327.86 627.869 6328.58 628.872C6329.32 629.847 6329.69 630.979 6329.69 632.269C6329.69 633.559 6329.32 634.706 6328.58 635.709C6327.86 636.713 6326.84 637.501 6325.52 638.074C6324.23 638.619 6322.76 638.891 6321.09 638.891C6319.43 638.891 6317.94 638.619 6316.62 638.074C6315.3 637.501 6314.27 636.713 6313.53 635.709C6312.81 634.706 6312.45 633.559 6312.45 632.269C6312.45 630.979 6312.82 629.847 6313.57 628.872C6314.31 627.869 6315.33 627.095 6316.62 626.55C6317.94 625.977 6319.43 625.69 6321.09 625.69ZM6321.09 629.517C6319.95 629.517 6319.03 629.761 6318.34 630.248C6317.68 630.707 6317.35 631.381 6317.35 632.269C6317.35 633.158 6317.68 633.832 6318.34 634.29C6319.03 634.749 6319.95 634.978 6321.09 634.978C6322.24 634.978 6323.14 634.749 6323.8 634.29C6324.49 633.832 6324.83 633.158 6324.83 632.269C6324.83 631.381 6324.49 630.707 6323.8 630.248C6323.14 629.761 6322.24 629.517 6321.09 629.517ZM6338.42 639.837H6333.39V617.305H6338.42V639.837ZM6343.07 630.807H6337V626.593H6343.07V630.807ZM6338.42 653.21H6333.39V645.427H6314.94V641.299H6338.42V653.21ZM6323.67 622.766H6318.56V617.176H6323.67V622.766ZM6354.05 623.669C6354.05 626.937 6353.38 629.904 6352.03 632.57C6350.72 635.208 6348.71 637.1 6346.01 638.246L6343.35 634.29C6345.64 633.23 6347.33 631.739 6348.42 629.818C6349.54 627.898 6350.1 625.848 6350.1 623.669V619.541H6354.05V623.669ZM6355 623.669C6355 625.733 6355.53 627.625 6356.59 629.345C6357.68 631.037 6359.32 632.312 6361.49 633.172L6358.87 637.128C6356.26 636.068 6354.31 634.333 6353.02 631.925C6351.73 629.517 6351.09 626.765 6351.09 623.669V619.541H6355V623.669ZM6373.75 639.235H6368.98V617.348H6373.75V639.235ZM6370.31 630.205H6364.76V626.077H6370.31V630.205ZM6366.18 638.117H6361.54V618.036H6366.18V638.117ZM6361.84 639.751C6365.54 639.751 6368.47 640.353 6370.65 641.557C6372.86 642.761 6373.96 644.395 6373.96 646.459C6373.96 647.835 6373.46 649.039 6372.46 650.071C6371.48 651.075 6370.08 651.849 6368.24 652.393C6366.41 652.938 6364.27 653.21 6361.84 653.21C6358.14 653.21 6355.2 652.608 6353.02 651.404C6350.84 650.2 6349.75 648.552 6349.75 646.459C6349.75 644.395 6350.84 642.761 6353.02 641.557C6355.2 640.353 6358.14 639.751 6361.84 639.751ZM6361.84 643.578C6359.57 643.578 6357.84 643.822 6356.63 644.309C6355.43 644.797 6354.83 645.513 6354.83 646.459C6354.83 648.351 6357.17 649.297 6361.84 649.297C6364.1 649.297 6365.84 649.068 6367.04 648.609C6368.27 648.122 6368.89 647.405 6368.89 646.459C6368.89 645.513 6368.27 644.797 6367.04 644.309C6365.84 643.822 6364.1 643.578 6361.84 643.578Z" fill="#FF0091"/>
<path d="M6139.37 575.569V573.112C6157.64 556.417 6159.84 551.629 6159.65 544.51C6159.46 537.265 6155.5 534.997 6151.02 535.186C6146.55 535.375 6143.59 538.273 6141.76 541.612L6139.3 540.226C6141.95 535.816 6146.68 532.603 6152.03 532.414C6163.24 531.973 6166.84 538.084 6166.84 544.699C6166.84 552.07 6159.53 557.74 6146.86 569.836L6146.93 569.962H6167.15V575.569H6139.37ZM6208.03 554.59C6208.03 567.694 6201.98 576.325 6191.21 576.325C6180.43 576.325 6174.39 567.694 6174.39 554.59C6174.39 541.486 6180.43 532.918 6191.21 532.918C6201.98 532.918 6208.03 541.486 6208.03 554.59ZM6181.57 554.59C6181.57 567.316 6185.1 574.12 6191.21 574.12C6197.32 574.12 6200.85 567.316 6200.85 554.59C6200.85 541.864 6197.32 534.997 6191.21 534.997C6185.1 534.997 6181.57 541.864 6181.57 554.59ZM6214.79 575.569V573.112C6233.06 556.417 6235.27 551.629 6235.08 544.51C6234.89 537.265 6230.92 534.997 6226.45 535.186C6221.98 535.375 6219.02 538.273 6217.19 541.612L6214.73 540.226C6217.38 535.816 6222.1 532.603 6227.46 532.414C6238.67 531.973 6242.26 538.084 6242.26 544.699C6242.26 552.07 6234.95 557.74 6222.29 569.836L6222.35 569.962H6242.58V575.569H6214.79ZM6266.96 575.632V565.993H6247.31V561.394L6270.87 531.784H6273.26V560.575H6280.01V565.993H6273.26V575.632H6266.96ZM6251.15 560.575H6266.96V540.73H6266.84L6251.15 560.575ZM6286.93 554.59V551.314H6312.76V554.59H6286.93ZM6354.27 554.59C6354.27 567.694 6348.22 576.325 6337.45 576.325C6326.68 576.325 6320.63 567.694 6320.63 554.59C6320.63 541.486 6326.68 532.918 6337.45 532.918C6348.22 532.918 6354.27 541.486 6354.27 554.59ZM6327.81 554.59C6327.81 567.316 6331.34 574.12 6337.45 574.12C6343.56 574.12 6347.09 567.316 6347.09 554.59C6347.09 541.864 6343.56 534.997 6337.45 534.997C6331.34 534.997 6327.81 541.864 6327.81 554.59ZM6375.4 532.351V575.569H6368.79V538.525L6362.67 542.557L6361.23 540.352L6373.95 532.351H6375.4Z" fill="#FF0091"/>
<path d="M2805.57 413.705H2800.54V386.873H2805.57V413.705ZM2810.21 402.009H2804.15V397.838H2810.21V402.009ZM2798.56 394.656H2777.88V390.614H2798.56V394.656ZM2788.24 395.903C2789.9 395.903 2791.38 396.204 2792.67 396.806C2793.99 397.38 2795 398.197 2795.72 399.257C2796.47 400.289 2796.84 401.479 2796.84 402.826C2796.84 404.202 2796.47 405.406 2795.72 406.438C2795 407.47 2793.99 408.273 2792.67 408.846C2791.38 409.42 2789.9 409.706 2788.24 409.706C2785.66 409.706 2783.57 409.076 2781.96 407.814C2780.38 406.553 2779.6 404.89 2779.6 402.826C2779.6 401.479 2779.95 400.275 2780.67 399.214C2781.42 398.154 2782.43 397.337 2783.72 396.763C2785.04 396.19 2786.55 395.903 2788.24 395.903ZM2788.24 399.816C2787.09 399.816 2786.17 400.089 2785.49 400.633C2784.83 401.149 2784.5 401.88 2784.5 402.826C2784.5 403.801 2784.83 404.546 2785.49 405.062C2786.17 405.55 2787.09 405.793 2788.24 405.793C2789.39 405.793 2790.29 405.55 2790.95 405.062C2791.64 404.546 2791.98 403.801 2791.98 402.826C2791.98 401.88 2791.64 401.149 2790.95 400.633C2790.29 400.089 2789.39 399.816 2788.24 399.816ZM2790.82 392.592H2785.7V386.873H2790.82V392.592ZM2806.77 422.09H2782.91V418.005H2806.77V422.09ZM2787.89 419.725H2782.91V411.641H2787.89V419.725ZM2837.11 392.506H2814.84V388.378H2837.11V392.506ZM2842.83 404.89H2810.97V400.719H2842.83V404.89ZM2829.41 411.168H2824.3V403.686H2829.41V411.168ZM2839.13 391.216C2839.13 393.366 2839.06 395.287 2838.92 396.978C2838.8 398.67 2838.5 400.547 2838.01 402.611L2833.02 402.181C2833.51 400.117 2833.81 398.283 2833.93 396.677C2834.04 395.072 2834.1 393.252 2834.1 391.216V388.378H2839.13V391.216ZM2839.13 422.735H2834.06V413.92H2814.19V409.921H2839.13V422.735ZM2859.97 388.636C2862.43 388.636 2864.65 389.066 2866.63 389.926C2868.64 390.786 2870.21 392.005 2871.36 393.581C2872.54 395.158 2873.12 396.964 2873.12 398.999C2873.12 401.035 2872.54 402.841 2871.36 404.417C2870.21 405.994 2868.64 407.212 2866.63 408.072C2864.65 408.932 2862.43 409.362 2859.97 409.362C2857.5 409.362 2855.26 408.932 2853.26 408.072C2851.28 407.212 2849.72 405.994 2848.57 404.417C2847.42 402.841 2846.85 401.035 2846.85 398.999C2846.85 396.964 2847.42 395.158 2848.57 393.581C2849.72 392.005 2851.28 390.786 2853.26 389.926C2855.26 389.066 2857.5 388.636 2859.97 388.636ZM2859.97 392.807C2857.56 392.807 2855.58 393.366 2854.03 394.484C2852.51 395.602 2851.75 397.107 2851.75 398.999C2851.75 400.891 2852.51 402.382 2854.03 403.471C2855.55 404.561 2857.53 405.105 2859.97 405.105C2862.4 405.105 2864.38 404.561 2865.9 403.471C2867.42 402.382 2868.18 400.891 2868.18 398.999C2868.18 397.107 2867.42 395.602 2865.9 394.484C2864.38 393.366 2862.4 392.807 2859.97 392.807ZM2875.92 418.392H2844.06V414.178H2875.92V418.392ZM2909.01 418.779H2877.15V414.565H2909.01V418.779ZM2895.55 416.242H2890.52V407.814H2895.55V416.242ZM2905.4 401.106H2885.83V407.083H2880.8V397.107H2900.37V393.323H2880.76V389.152H2905.4V401.106ZM2906.17 409.19H2880.8V405.019H2906.17V409.19ZM2936.91 403.858H2931.8V396.978H2936.91V403.858ZM2946.54 399.085H2922.42V395.043H2946.54V399.085ZM2946.24 392.119H2927.5V397.279H2922.42V388.034H2946.24V392.119ZM2950.24 405.406H2918.47V401.407H2950.24V405.406ZM2946.42 416.5H2927.15V419.682H2922.16V412.974H2941.43V411.082H2922.12V407.298H2946.42V416.5ZM2947.28 422.434H2922.16V418.564H2947.28V422.434ZM2960.97 389.324C2962.75 389.324 2964.34 389.855 2965.75 390.915C2967.15 391.976 2968.24 393.481 2969.01 395.43C2969.82 397.351 2970.22 399.601 2970.22 402.181C2970.22 404.761 2969.82 407.026 2969.01 408.975C2968.24 410.896 2967.15 412.387 2965.75 413.447C2964.34 414.479 2962.75 414.995 2960.97 414.995C2959.19 414.995 2957.6 414.479 2956.2 413.447C2954.82 412.387 2953.73 410.896 2952.93 408.975C2952.16 407.026 2951.77 404.761 2951.77 402.181C2951.77 399.601 2952.16 397.337 2952.93 395.387C2953.73 393.438 2954.82 391.947 2956.2 390.915C2957.6 389.855 2959.19 389.324 2960.97 389.324ZM2960.97 394.011C2959.65 394.011 2958.59 394.728 2957.79 396.161C2956.99 397.566 2956.59 399.573 2956.59 402.181C2956.59 404.761 2956.99 406.754 2957.79 408.158C2958.59 409.563 2959.65 410.265 2960.97 410.265C2962.32 410.265 2963.38 409.563 2964.15 408.158C2964.96 406.754 2965.36 404.761 2965.36 402.181C2965.36 399.573 2964.96 397.566 2964.15 396.161C2963.38 394.728 2962.32 394.011 2960.97 394.011ZM2979.12 422.735H2974.04V386.83H2979.12V422.735ZM2984.19 404.589H2978V400.332H2984.19V404.589ZM3002.96 405.191H2997.98V399.945H3002.96V405.191ZM3000.56 387.389C3004.45 387.389 3007.54 388.006 3009.8 389.238C3012.06 390.471 3013.2 392.162 3013.2 394.312C3013.2 396.462 3012.06 398.168 3009.8 399.429C3007.54 400.662 3004.45 401.278 3000.56 401.278C2996.66 401.278 2993.56 400.662 2991.27 399.429C2988.97 398.168 2987.83 396.462 2987.83 394.312C2987.83 392.162 2988.97 390.471 2991.27 389.238C2993.56 388.006 2996.66 387.389 3000.56 387.389ZM3000.56 391.345C2998.15 391.345 2996.28 391.603 2994.97 392.119C2993.68 392.607 2993.03 393.338 2993.03 394.312C2993.03 396.319 2995.54 397.322 3000.56 397.322C3002.96 397.322 3004.81 397.079 3006.1 396.591C3007.39 396.075 3008.04 395.316 3008.04 394.312C3008.04 393.338 3007.39 392.607 3006.1 392.119C3004.81 391.603 3002.96 391.345 3000.56 391.345ZM3012.64 422.348H2988.34V410.093H3012.64V422.348ZM2993.33 418.22H3007.69V414.178H2993.33V418.22ZM3016.42 407.771H2984.65V403.686H3016.42V407.771Z" fill="#FF0091"/>
<path d="M2780.19 345.094V342.637C2798.46 325.942 2800.67 321.154 2800.48 314.035C2800.29 306.79 2796.32 304.522 2791.85 304.711C2787.37 304.9 2784.41 307.798 2782.59 311.137L2780.13 309.751C2782.77 305.341 2787.5 302.128 2792.85 301.939C2804.07 301.498 2807.66 307.609 2807.66 314.224C2807.66 321.595 2800.35 327.265 2787.69 339.361L2787.75 339.487H2807.97V345.094H2780.19ZM2848.85 324.115C2848.85 337.219 2842.8 345.85 2832.03 345.85C2821.26 345.85 2815.21 337.219 2815.21 324.115C2815.21 311.011 2821.26 302.443 2832.03 302.443C2842.8 302.443 2848.85 311.011 2848.85 324.115ZM2822.39 324.115C2822.39 336.841 2825.92 343.645 2832.03 343.645C2838.14 343.645 2841.67 336.841 2841.67 324.115C2841.67 311.389 2838.14 304.522 2832.03 304.522C2825.92 304.522 2822.39 311.389 2822.39 324.115ZM2855.62 345.094V342.637C2873.89 325.942 2876.09 321.154 2875.91 314.035C2875.72 306.79 2871.75 304.522 2867.27 304.711C2862.8 304.9 2859.84 307.798 2858.01 311.137L2855.56 309.751C2858.2 305.341 2862.93 302.128 2868.28 301.939C2879.5 301.498 2883.09 307.609 2883.09 314.224C2883.09 321.595 2875.78 327.265 2863.12 339.361L2863.18 339.487H2883.4V345.094H2855.62ZM2924.28 324.115C2924.28 337.219 2918.23 345.85 2907.46 345.85C2896.69 345.85 2890.64 337.219 2890.64 324.115C2890.64 311.011 2896.69 302.443 2907.46 302.443C2918.23 302.443 2924.28 311.011 2924.28 324.115ZM2897.82 324.115C2897.82 336.841 2901.35 343.645 2907.46 343.645C2913.57 343.645 2917.1 336.841 2917.1 324.115C2917.1 311.389 2913.57 304.522 2907.46 304.522C2901.35 304.522 2897.82 311.389 2897.82 324.115ZM2932.5 324.115V320.839H2958.33V324.115H2932.5ZM2980.05 301.876V345.094H2973.43V308.05L2967.32 312.082L2965.87 309.877L2978.6 301.876H2980.05ZM3024.38 324.115C3024.38 337.219 3018.33 345.85 3007.56 345.85C2996.78 345.85 2990.74 337.219 2990.74 324.115C2990.74 311.011 2996.78 302.443 3007.56 302.443C3018.33 302.443 3024.38 311.011 3024.38 324.115ZM2997.92 324.115C2997.92 336.841 3001.45 343.645 3007.56 343.645C3013.67 343.645 3017.2 336.841 3017.2 324.115C3017.2 311.389 3013.67 304.522 3007.56 304.522C3001.45 304.522 2997.92 311.389 2997.92 324.115ZM3032.59 324.115V320.839H3058.42V324.115H3032.59ZM3073.09 321.784H3074.1C3078.82 321.784 3084.31 317.878 3084.31 312.397C3084.31 307.105 3081.16 304.396 3077 304.396C3073.28 304.396 3070.45 305.215 3067.23 309.877L3065.09 308.617C3067.8 304.9 3071.58 302.002 3078.32 302.002C3087.83 302.002 3091.24 306.286 3091.24 312.145C3091.24 316.996 3086.83 320.335 3081.53 322.162V322.729C3088.02 323.611 3092.81 326.131 3092.81 333.187C3092.81 340.747 3085.75 346.228 3077.44 346.228C3070.19 346.228 3067.8 344.842 3064.08 341.503L3065.91 339.739C3069.94 343.456 3072.71 343.708 3076.56 343.708C3082.35 343.708 3085.25 339.361 3085.25 333.502C3085.25 328.21 3082.73 324.556 3075.23 324.556H3073.09V321.784ZM3112.63 301.876V345.094H3106.02V308.05L3099.91 312.082L3098.46 309.877L3111.18 301.876H3112.63Z" fill="#FF0091"/>
<path d="M2101.97 641.6H2096.94V635.322H2101.97V641.6ZM2115.34 637.687H2083.56V633.602H2115.34V637.687ZM2099.43 640.224C2103.22 640.224 2106.18 640.798 2108.33 641.944C2110.48 643.062 2111.56 644.653 2111.56 646.717C2111.56 648.781 2110.48 650.372 2108.33 651.49C2106.18 652.637 2103.22 653.21 2099.43 653.21C2095.59 653.21 2092.58 652.637 2090.4 651.49C2088.25 650.372 2087.18 648.781 2087.18 646.717C2087.18 644.653 2088.25 643.062 2090.4 641.944C2092.58 640.798 2095.59 640.224 2099.43 640.224ZM2099.43 644.137C2097.02 644.137 2095.23 644.352 2094.06 644.782C2092.91 645.184 2092.34 645.829 2092.34 646.717C2092.34 648.437 2094.7 649.297 2099.43 649.297C2104.13 649.297 2106.48 648.437 2106.48 646.717C2106.48 644.997 2104.13 644.137 2099.43 644.137ZM2100.42 621.605C2100.42 623.411 2099.89 625.074 2098.83 626.593C2097.8 628.084 2096.25 629.331 2094.19 630.334C2092.12 631.338 2089.61 631.983 2086.66 632.269L2084.98 628.184C2087.42 627.984 2089.46 627.554 2091.09 626.894C2092.75 626.206 2093.99 625.404 2094.79 624.486C2095.59 623.54 2095.99 622.58 2095.99 621.605V620.702H2100.42V621.605ZM2102.87 621.605C2102.87 622.58 2103.27 623.54 2104.08 624.486C2104.88 625.404 2106.11 626.206 2107.77 626.894C2109.47 627.554 2111.54 627.984 2114.01 628.184L2112.25 632.269C2109.32 631.983 2106.83 631.338 2104.76 630.334C2102.7 629.331 2101.14 628.084 2100.08 626.593C2099.02 625.074 2098.49 623.411 2098.49 621.605V620.702H2102.87V621.605ZM2112.46 622.895H2086.53V618.81H2112.46V622.895ZM2142.8 622.981H2120.52V618.853H2142.8V622.981ZM2148.52 635.365H2116.65V631.194H2148.52V635.365ZM2135.1 641.643H2129.98V634.161H2135.1V641.643ZM2144.82 621.691C2144.82 623.841 2144.75 625.762 2144.6 627.453C2144.49 629.145 2144.19 631.022 2143.7 633.086L2138.71 632.656C2139.2 630.592 2139.5 628.758 2139.62 627.152C2139.73 625.547 2139.79 623.727 2139.79 621.691V618.853H2144.82V621.691ZM2144.82 653.21H2139.75V644.395H2119.88V640.396H2144.82V653.21ZM2165.65 619.111C2168.12 619.111 2170.34 619.541 2172.32 620.401C2174.33 621.261 2175.9 622.48 2177.05 624.056C2178.22 625.633 2178.81 627.439 2178.81 629.474C2178.81 631.51 2178.22 633.316 2177.05 634.892C2175.9 636.469 2174.33 637.687 2172.32 638.547C2170.34 639.407 2168.12 639.837 2165.65 639.837C2163.19 639.837 2160.95 639.407 2158.95 638.547C2156.97 637.687 2155.41 636.469 2154.26 634.892C2153.11 633.316 2152.54 631.51 2152.54 629.474C2152.54 627.439 2153.11 625.633 2154.26 624.056C2155.41 622.48 2156.97 621.261 2158.95 620.401C2160.95 619.541 2163.19 619.111 2165.65 619.111ZM2165.65 623.282C2163.25 623.282 2161.27 623.841 2159.72 624.959C2158.2 626.077 2157.44 627.582 2157.44 629.474C2157.44 631.366 2158.2 632.857 2159.72 633.946C2161.24 635.036 2163.22 635.58 2165.65 635.58C2168.09 635.58 2170.07 635.036 2171.59 633.946C2173.11 632.857 2173.87 631.366 2173.87 629.474C2173.87 627.582 2173.11 626.077 2171.59 624.959C2170.07 623.841 2168.09 623.282 2165.65 623.282ZM2181.61 648.867H2149.74V644.653H2181.61V648.867ZM2214.7 649.254H2182.83V645.04H2214.7V649.254ZM2201.24 646.717H2196.21V638.289H2201.24V646.717ZM2211.09 631.581H2191.52V637.558H2186.49V627.582H2206.05V623.798H2186.45V619.627H2211.09V631.581ZM2211.86 639.665H2186.49V635.494H2211.86V639.665ZM2253.35 653.253H2248.23V617.305H2253.35V653.253ZM2234.39 619.799C2236.14 619.799 2237.71 620.33 2239.12 621.39C2240.52 622.451 2241.61 623.956 2242.39 625.905C2243.19 627.826 2243.59 630.076 2243.59 632.656C2243.59 635.236 2243.19 637.501 2242.39 639.45C2241.61 641.371 2240.52 642.862 2239.12 643.922C2237.71 644.954 2236.14 645.47 2234.39 645.47C2232.61 645.47 2231.02 644.954 2229.62 643.922C2228.21 642.862 2227.11 641.371 2226.3 639.45C2225.53 637.501 2225.14 635.236 2225.14 632.656C2225.14 630.076 2225.53 627.826 2226.3 625.905C2227.11 623.956 2228.21 622.451 2229.62 621.39C2231.02 620.33 2232.61 619.799 2234.39 619.799ZM2234.39 624.486C2233.04 624.486 2231.98 625.189 2231.21 626.593C2230.43 627.998 2230.05 630.019 2230.05 632.656C2230.05 635.265 2230.43 637.272 2231.21 638.676C2231.98 640.052 2233.04 640.74 2234.39 640.74C2235.74 640.74 2236.8 640.052 2237.57 638.676C2238.34 637.272 2238.73 635.265 2238.73 632.656C2238.73 630.048 2238.34 628.041 2237.57 626.636C2236.8 625.203 2235.74 624.486 2234.39 624.486ZM2276.08 637.515H2259.01V620.186H2276.08V637.515ZM2264 633.43H2271.09V624.228H2264V633.43ZM2286.44 642.847H2281.41V617.348H2286.44V642.847ZM2287.39 652.436H2263.05V648.308H2287.39V652.436ZM2268.12 650.114H2263.05V640.525H2268.12V650.114Z" fill="#FF0091"/>
<path d="M2085.88 575.569V573.112C2104.15 556.417 2106.36 551.629 2106.17 544.51C2105.98 537.265 2102.01 534.997 2097.54 535.186C2093.06 535.375 2090.1 538.273 2088.27 541.612L2085.82 540.226C2088.46 535.816 2093.19 532.603 2098.54 532.414C2109.76 531.973 2113.35 538.084 2113.35 544.699C2113.35 552.07 2106.04 557.74 2093.38 569.836L2093.44 569.962H2113.66V575.569H2085.88ZM2154.54 554.59C2154.54 567.694 2148.49 576.325 2137.72 576.325C2126.95 576.325 2120.9 567.694 2120.9 554.59C2120.9 541.486 2126.95 532.918 2137.72 532.918C2148.49 532.918 2154.54 541.486 2154.54 554.59ZM2128.08 554.59C2128.08 567.316 2131.61 574.12 2137.72 574.12C2143.83 574.12 2147.36 567.316 2147.36 554.59C2147.36 541.864 2143.83 534.997 2137.72 534.997C2131.61 534.997 2128.08 541.864 2128.08 554.59ZM2175.67 532.351V575.569H2169.06V538.525L2162.95 542.557L2161.5 540.352L2174.22 532.351H2175.67ZM2203.36 532.351V575.569H2196.74V538.525L2190.63 542.557L2189.18 540.352L2201.91 532.351H2203.36ZM2259.17 543.376V540.793H2267.36V529.075H2273.54V576.892H2267.36V557.677H2257.09V555.094H2267.36V543.376H2259.17ZM2232.84 535.375V533.044H2257.16V538.273C2255.9 551.629 2243.3 563.977 2232.21 568.765L2231.51 567.253C2241.28 562.402 2249.6 550.81 2250.48 538.084V535.375H2232.84ZM2305.18 527.563C2315.76 527.563 2321.5 530.965 2321.5 537.076V537.706C2321.5 543.628 2315.95 547.219 2305.18 547.219C2294.6 547.219 2288.93 543.817 2288.93 537.706V537.076C2288.93 531.154 2294.79 527.563 2305.18 527.563ZM2305.18 545.392C2312.24 545.392 2315.13 542.053 2315.13 537.58V537.202C2315.13 532.351 2312.05 529.39 2305.18 529.39C2298.69 529.39 2295.29 532.54 2295.29 537.202V537.58C2295.29 541.864 2298.31 545.392 2305.18 545.392ZM2281.43 553.897V551.629H2326.03L2327.73 551.377L2328.74 553.897H2307.83V560.638H2321.12V571.222H2294.28V578.026H2323.26L2324.02 580.357H2288.17V568.954H2315.01V562.969H2287.73V560.638H2301.65V553.897H2281.43Z" fill="#FF0091"/>
<path d="M156.992 391.904C156.992 395.688 156.16 398.999 154.498 401.837C152.835 404.675 150.341 406.668 147.016 407.814L144.35 403.686C147.216 402.74 149.338 401.207 150.714 399.085C152.118 396.964 152.821 394.57 152.821 391.904V388.679H156.992V391.904ZM157.981 391.646C157.981 394.198 158.626 396.462 159.916 398.44C161.206 400.39 163.184 401.809 165.85 402.697L163.227 406.696C160.045 405.607 157.694 403.758 156.175 401.149C154.655 398.512 153.896 395.344 153.896 391.646V388.679H157.981V391.646ZM174.106 407.814H169.032V386.83H174.106V407.814ZM162.109 408.803C165.864 408.803 168.802 409.42 170.924 410.652C173.074 411.885 174.149 413.591 174.149 415.769C174.149 417.948 173.074 419.654 170.924 420.886C168.802 422.119 165.864 422.735 162.109 422.735C158.411 422.735 155.501 422.119 153.38 420.886C151.258 419.654 150.198 417.948 150.198 415.769C150.198 413.591 151.258 411.885 153.38 410.652C155.501 409.42 158.411 408.803 162.109 408.803ZM162.109 412.759C157.465 412.759 155.143 413.763 155.143 415.769C155.143 416.744 155.73 417.489 156.906 418.005C158.11 418.493 159.844 418.736 162.109 418.736C166.81 418.736 169.161 417.747 169.161 415.769C169.161 413.763 166.81 412.759 162.109 412.759ZM169.72 397.537H162.582V393.323H169.72V397.537ZM205.476 407.083H200.445V386.873H205.476V407.083ZM210.163 398.612H204.1V394.441H210.163V398.612ZM205.476 422.305H182.6V408.717H205.476V422.305ZM187.545 418.263H200.574V412.673H187.545V418.263ZM184.277 403.256H179.203V388.593H184.277V403.256ZM182.256 401.02C187.53 401.02 192.676 400.533 197.693 399.558L198.252 403.729C193.35 404.733 188.018 405.234 182.256 405.234H179.203V401.02H182.256ZM223.559 394.828C223.559 399.673 222.713 403.973 221.022 407.728C219.33 411.455 216.793 414.107 213.411 415.683L210.444 411.383C213.396 410.093 215.618 407.943 217.109 404.933C218.628 401.923 219.388 398.555 219.388 394.828V389.582H223.559V394.828ZM224.548 394.828C224.548 398.326 225.279 401.522 226.741 404.417C228.231 407.313 230.396 409.391 233.234 410.652L230.267 414.78C227.027 413.232 224.576 410.681 222.914 407.126C221.251 403.543 220.42 399.444 220.42 394.828V389.582H224.548V394.828ZM240.028 422.778H234.954V386.83H240.028V422.778ZM263.743 404.202H258.024V400.074H263.743V404.202ZM274.192 422.735H269.376V386.83H274.192V422.735ZM266.882 421.058H262.109V387.389H266.882V421.058ZM251.875 389.41C253.423 389.41 254.771 389.941 255.917 391.001C257.064 392.033 257.953 393.524 258.583 395.473C259.214 397.423 259.529 399.716 259.529 402.353C259.529 405.019 259.214 407.341 258.583 409.319C257.953 411.297 257.064 412.817 255.917 413.877C254.771 414.909 253.423 415.425 251.875 415.425C250.327 415.425 248.98 414.909 247.833 413.877C246.687 412.817 245.798 411.297 245.167 409.319C244.565 407.341 244.264 405.019 244.264 402.353C244.264 399.687 244.565 397.394 245.167 395.473C245.798 393.524 246.687 392.033 247.833 391.001C248.98 389.941 250.327 389.41 251.875 389.41ZM251.875 394.269C250.929 394.269 250.198 394.943 249.682 396.29C249.166 397.638 248.908 399.659 248.908 402.353C248.908 407.771 249.897 410.48 251.875 410.48C253.882 410.48 254.885 407.771 254.885 402.353C254.885 399.659 254.627 397.638 254.111 396.29C253.595 394.943 252.85 394.269 251.875 394.269ZM303.971 402.224H294.769V398.053H303.971V402.224ZM289.265 394.828C289.265 399.558 288.463 403.787 286.857 407.513C285.252 411.24 282.858 413.906 279.676 415.511L276.58 411.34C279.418 409.993 281.554 407.814 282.987 404.804C284.449 401.794 285.18 398.469 285.18 394.828V389.582H289.265V394.828ZM290.297 394.828C290.297 398.412 291 401.651 292.404 404.546C293.809 407.442 295.887 409.52 298.639 410.781L295.629 414.909C292.476 413.333 290.125 410.781 288.577 407.255C287.058 403.701 286.298 399.558 286.298 394.828V389.582H290.297V394.828ZM306.508 422.778H301.477V386.83H306.508V422.778ZM336.778 410.222H331.747V405.105H336.778V410.222ZM350.108 405.836H318.503V402.095H350.108V405.836ZM336.735 391.13H331.704V386.83H336.735V391.13ZM335.832 392.076C335.832 394.685 334.57 396.792 332.048 398.397C329.525 399.974 325.856 400.891 321.04 401.149L319.707 397.408C323.663 397.236 326.601 396.649 328.522 395.645C330.442 394.642 331.403 393.452 331.403 392.076V391.388H335.832V392.076ZM337.079 392.076C337.079 393.452 338.025 394.642 339.917 395.645C341.837 396.649 344.804 397.236 348.818 397.408L347.399 401.149C342.64 400.891 338.985 399.974 336.434 398.397C333.911 396.792 332.65 394.685 332.65 392.076V391.388H337.079V392.076ZM347.141 393.409H321.47V389.625H347.141V393.409ZM346.324 416.844H327.06V420.241H322.072V413.404H341.336V411.684H322.029V408.029H346.324V416.844ZM347.184 422.477H322.072V418.736H347.184V422.477ZM361.697 393.194C361.697 396.462 361.024 399.429 359.676 402.095C358.358 404.733 356.351 406.625 353.656 407.771L350.99 403.815C353.284 402.755 354.975 401.264 356.064 399.343C357.182 397.423 357.741 395.373 357.741 393.194V389.066H361.697V393.194ZM362.643 393.194C362.643 395.258 363.174 397.15 364.234 398.87C365.324 400.562 366.958 401.837 369.136 402.697L366.513 406.653C363.905 405.593 361.955 403.858 360.665 401.45C359.375 399.042 358.73 396.29 358.73 393.194V389.066H362.643V393.194ZM381.391 408.76H376.618V386.873H381.391V408.76ZM377.951 399.73H372.404V395.602H377.951V399.73ZM373.823 407.642H369.179V387.561H373.823V407.642ZM369.48 409.276C373.178 409.276 376.117 409.878 378.295 411.082C380.503 412.286 381.606 413.92 381.606 415.984C381.606 417.36 381.105 418.564 380.101 419.596C379.127 420.6 377.722 421.374 375.887 421.918C374.053 422.463 371.917 422.735 369.48 422.735C365.782 422.735 362.844 422.133 360.665 420.929C358.487 419.725 357.397 418.077 357.397 415.984C357.397 413.92 358.487 412.286 360.665 411.082C362.844 409.878 365.782 409.276 369.48 409.276ZM369.48 413.103C367.216 413.103 365.481 413.347 364.277 413.834C363.073 414.322 362.471 415.038 362.471 415.984C362.471 417.876 364.808 418.822 369.48 418.822C371.745 418.822 373.479 418.593 374.683 418.134C375.916 417.647 376.532 416.93 376.532 415.984C376.532 415.038 375.916 414.322 374.683 413.834C373.479 413.347 371.745 413.103 369.48 413.103Z" fill="#FF0091"/>
<path d="M147.01 345.094V342.637C165.28 325.942 167.485 321.154 167.296 314.035C167.107 306.79 163.138 304.522 158.665 304.711C154.192 304.9 151.231 307.798 149.404 311.137L146.947 309.751C149.593 305.341 154.318 302.128 159.673 301.939C170.887 301.498 174.478 307.609 174.478 314.224C174.478 321.595 167.17 327.265 154.507 339.361L154.57 339.487H174.793V345.094H147.01ZM215.67 324.115C215.67 337.219 209.622 345.85 198.849 345.85C188.076 345.85 182.028 337.219 182.028 324.115C182.028 311.011 188.076 302.443 198.849 302.443C209.622 302.443 215.67 311.011 215.67 324.115ZM189.21 324.115C189.21 336.841 192.738 343.645 198.849 343.645C204.96 343.645 208.488 336.841 208.488 324.115C208.488 311.389 204.96 304.522 198.849 304.522C192.738 304.522 189.21 311.389 189.21 324.115ZM256.584 324.115C256.584 337.219 250.536 345.85 239.763 345.85C228.99 345.85 222.942 337.219 222.942 324.115C222.942 311.011 228.99 302.443 239.763 302.443C250.536 302.443 256.584 311.011 256.584 324.115ZM230.124 324.115C230.124 336.841 233.652 343.645 239.763 343.645C245.874 343.645 249.402 336.841 249.402 324.115C249.402 311.389 245.874 304.522 239.763 304.522C233.652 304.522 230.124 311.389 230.124 324.115ZM263.351 345.094V342.637C281.621 325.942 283.826 321.154 283.637 314.035C283.448 306.79 279.479 304.522 275.006 304.711C270.533 304.9 267.572 307.798 265.745 311.137L263.288 309.751C265.934 305.341 270.659 302.128 276.014 301.939C287.228 301.498 290.819 307.609 290.819 314.224C290.819 321.595 283.511 327.265 270.848 339.361L270.911 339.487H291.134V345.094H263.351ZM299.314 324.115V320.839H325.144V324.115H299.314ZM366.649 324.115C366.649 337.219 360.601 345.85 349.828 345.85C339.055 345.85 333.007 337.219 333.007 324.115C333.007 311.011 339.055 302.443 349.828 302.443C360.601 302.443 366.649 311.011 366.649 324.115ZM340.189 324.115C340.189 336.841 343.717 343.645 349.828 343.645C355.939 343.645 359.467 336.841 359.467 324.115C359.467 311.389 355.939 304.522 349.828 304.522C343.717 304.522 340.189 311.389 340.189 324.115ZM387.78 301.876V345.094H381.165V308.05L375.054 312.082L373.605 309.877L386.331 301.876H387.78ZM399.413 324.115V320.839H425.243V324.115H399.413ZM446.966 301.876V345.094H440.351V308.05L434.24 312.082L432.791 309.877L445.517 301.876H446.966ZM464.457 321.784H465.465C470.19 321.784 475.671 317.878 475.671 312.397C475.671 307.105 472.521 304.396 468.363 304.396C464.646 304.396 461.811 305.215 458.598 309.877L456.456 308.617C459.165 304.9 462.945 302.002 469.686 302.002C479.199 302.002 482.601 306.286 482.601 312.145C482.601 316.996 478.191 320.335 472.899 322.162V322.729C479.388 323.611 484.176 326.131 484.176 333.187C484.176 340.747 477.12 346.228 468.804 346.228C461.559 346.228 459.165 344.842 455.448 341.503L457.275 339.739C461.307 343.456 464.079 343.708 467.922 343.708C473.718 343.708 476.616 339.361 476.616 333.502C476.616 328.21 474.096 324.556 466.599 324.556H464.457V321.784Z" fill="#FF0091"/>
</svg>
