<svg width="6982" height="743" viewBox="0 0 6982 743" fill="none" xmlns="http://www.w3.org/2000/svg">
<path d="M153.645 92.186H6760.28" stroke="#FF0091" stroke-width="3"/>
<path d="M5773.37 107.55C5781.86 107.55 5788.74 100.671 5788.74 92.1856C5788.74 83.7001 5781.86 76.8213 5773.37 76.8213C5764.89 76.8213 5758.01 83.7001 5758.01 92.1856C5758.01 100.671 5764.89 107.55 5773.37 107.55Z" fill="#FF0091"/>
<path d="M5798.3 107.55C5806.79 107.55 5813.67 100.671 5813.67 92.1856C5813.67 83.7001 5806.79 76.8213 5798.3 76.8213C5789.82 76.8213 5782.94 83.7001 5782.94 92.1856C5782.94 100.671 5789.82 107.55 5798.3 107.55Z" fill="#FF0091"/>
<path d="M6264 107.55C6272.49 107.55 6279.37 100.671 6279.37 92.1856C6279.37 83.7001 6272.49 76.8213 6264 76.8213C6255.52 76.8213 6248.64 83.7001 6248.64 92.1856C6248.64 100.671 6255.52 107.55 6264 107.55Z" fill="#FF0091"/>
<path d="M6409.58 107.55C6418.07 107.55 6424.95 100.671 6424.95 92.1856C6424.95 83.7001 6418.07 76.8213 6409.58 76.8213C6401.1 76.8213 6394.22 83.7001 6394.22 92.1856C6394.22 100.671 6401.1 107.55 6409.58 107.55Z" fill="#FF0091"/>
<path d="M6606.64 107.55C6615.12 107.55 6622 100.671 6622 92.1856C6622 83.7001 6615.12 76.8213 6606.64 76.8213C6598.15 76.8213 6591.27 83.7001 6591.27 92.1856C6591.27 100.671 6598.15 107.55 6606.64 107.55Z" fill="#FF0091"/>
<path d="M5676.05 107.55C5684.54 107.55 5691.42 100.671 5691.42 92.1856C5691.42 83.7001 5684.54 76.8213 5676.05 76.8213C5667.57 76.8213 5660.69 83.7001 5660.69 92.1856C5660.69 100.671 5667.57 107.55 5676.05 107.55Z" fill="#FF0091"/>
<path d="M3056.41 107.55C3064.89 107.55 3071.77 100.671 3071.77 92.1856C3071.77 83.7001 3064.89 76.8213 3056.41 76.8213C3047.92 76.8213 3041.04 83.7001 3041.04 92.1856C3041.04 100.671 3047.92 107.55 3056.41 107.55Z" fill="#FF0091"/>
<path d="M153.642 107.55C162.127 107.55 169.006 100.671 169.006 92.1856C169.006 83.7001 162.127 76.8213 153.642 76.8213C145.156 76.8213 138.277 83.7001 138.277 92.1856C138.277 100.671 145.156 107.55 153.642 107.55Z" fill="#FF0091"/>
<path d="M5773.37 92.1855C5773.37 199.736 3794.97 199.736 3794.97 307.285V338.014C3794.97 445.564 3794.97 445.564 3794.97 553.114" stroke="#FF0091" stroke-width="2"/>
<path d="M5798.31 92.1855C5798.31 199.735 4535.54 199.735 4535.54 307.285" stroke="#FF0091" stroke-width="2"/>
<path d="M6264 92.1855C6264 199.736 5276.09 199.736 5276.09 307.285V338.014C5276.09 445.564 5276.09 445.564 5276.09 553.114" stroke="#FF0091" stroke-width="2"/>
<path d="M6409.58 92.1855C6409.58 199.735 6016.65 199.735 6016.65 307.285" stroke="#FF0091" stroke-width="2"/>
<path d="M6606.64 92.1855C6606.64 199.736 6757.21 199.736 6757.21 307.285V338.014C6757.21 445.564 6637.37 445.564 6637.37 553.114" stroke="#FF0091" stroke-width="2"/>
<path d="M5676.05 92.1855C5676.05 199.735 3054.42 199.735 3054.42 307.285" stroke="#FF0091" stroke-width="2"/>
<path d="M3056.41 92.1855C3056.41 199.736 2313.86 199.736 2313.86 307.285V338.014C2313.86 445.564 2313.86 445.564 2313.86 553.114" stroke="#FF0091" stroke-width="2"/>
<path d="M153.645 92.1855C153.645 199.735 245.83 199.735 245.83 307.285" stroke="#FF0091" stroke-width="2"/>
<path d="M3752.79 692.686H3736.1V685.12H3752.79V692.686ZM3726.11 679.27C3726.11 687.85 3724.66 695.52 3721.75 702.28C3718.83 709.04 3714.49 713.876 3708.72 716.788L3703.1 709.222C3708.25 706.778 3712.13 702.826 3714.73 697.366C3717.38 691.906 3718.7 685.874 3718.7 679.27V669.754H3726.11V679.27ZM3727.99 679.27C3727.99 685.77 3729.26 691.646 3731.81 696.898C3734.36 702.15 3738.13 705.92 3743.12 708.208L3737.66 715.696C3731.94 712.836 3727.67 708.208 3724.87 701.812C3722.11 695.364 3720.73 687.85 3720.73 679.27V669.754H3727.99V679.27ZM3757.39 729.97H3748.27V664.762H3757.39V729.97ZM3814.22 702.358H3805.09V664.762H3814.22V702.358ZM3822.56 687.616H3811.64V680.05H3822.56V687.616ZM3796.59 669.052C3796.59 677.684 3794.04 684.99 3788.95 690.97C3783.9 696.95 3776.65 701.292 3767.18 703.996L3763.6 696.586C3771.14 694.454 3776.88 691.386 3780.83 687.382C3784.84 683.378 3786.84 678.802 3786.84 673.654V669.052H3796.59ZM3792.38 676.54H3766.56V669.052H3792.38V676.54ZM3793.55 703.216C3797.81 703.216 3801.56 703.762 3804.78 704.854C3808 705.946 3810.5 707.506 3812.27 709.534C3814.04 711.562 3814.92 713.928 3814.92 716.632C3814.92 719.284 3814.04 721.624 3812.27 723.652C3810.5 725.68 3808 727.24 3804.78 728.332C3801.56 729.424 3797.81 729.97 3793.55 729.97C3789.34 729.97 3785.59 729.424 3782.32 728.332C3779.04 727.24 3776.49 725.68 3774.67 723.652C3772.9 721.624 3772.02 719.284 3772.02 716.632C3772.02 713.928 3772.9 711.562 3774.67 709.534C3776.49 707.506 3779.01 705.946 3782.24 704.854C3785.51 703.762 3789.28 703.216 3793.55 703.216ZM3793.55 710.47C3789.6 710.47 3786.53 711.016 3784.34 712.108C3782.16 713.148 3781.07 714.656 3781.07 716.632C3781.07 718.556 3782.16 720.064 3784.34 721.156C3786.58 722.196 3789.65 722.716 3793.55 722.716C3797.45 722.716 3800.46 722.196 3802.6 721.156C3804.78 720.064 3805.87 718.556 3805.87 716.632C3805.87 714.656 3804.78 713.148 3802.6 712.108C3800.46 711.016 3797.45 710.47 3793.55 710.47ZM3878.69 729.892H3870.11V664.762H3878.69V729.892ZM3872.14 697.288H3861.53V689.8H3872.14V697.288ZM3864.34 726.694H3855.83V665.932H3864.34V726.694ZM3830.17 707.428C3834.85 707.428 3838.83 707.324 3842.11 707.116C3845.38 706.908 3848.74 706.492 3852.17 705.868L3852.87 713.512C3849.33 714.188 3845.85 714.63 3842.42 714.838C3839.04 715.046 3834.96 715.15 3830.17 715.15H3825.8V707.428H3830.17ZM3849.28 679.816H3834.93V711.172H3825.8V672.328H3849.28V679.816ZM3921.55 677.788H3884.03V670.534H3921.55V677.788ZM3902.83 679.972C3905.85 679.972 3908.53 680.492 3910.87 681.532C3913.26 682.52 3915.1 683.924 3916.4 685.744C3917.76 687.512 3918.43 689.566 3918.43 691.906C3918.43 694.246 3917.76 696.326 3916.4 698.146C3915.1 699.966 3913.26 701.396 3910.87 702.436C3908.53 703.424 3905.85 703.918 3902.83 703.918C3899.82 703.918 3897.11 703.424 3894.72 702.436C3892.33 701.396 3890.46 699.966 3889.1 698.146C3887.8 696.326 3887.15 694.246 3887.15 691.906C3887.15 689.566 3887.83 687.512 3889.18 685.744C3890.53 683.924 3892.38 682.52 3894.72 681.532C3897.11 680.492 3899.82 679.972 3902.83 679.972ZM3902.83 686.914C3900.75 686.914 3899.09 687.356 3897.84 688.24C3896.64 689.072 3896.05 690.294 3896.05 691.906C3896.05 693.518 3896.64 694.74 3897.84 695.572C3899.09 696.404 3900.75 696.82 3902.83 696.82C3904.91 696.82 3906.55 696.404 3907.75 695.572C3908.99 694.74 3909.62 693.518 3909.62 691.906C3909.62 690.294 3908.99 689.072 3907.75 688.24C3906.55 687.356 3904.91 686.914 3902.83 686.914ZM3934.27 705.634H3925.14V664.762H3934.27V705.634ZM3942.69 689.254H3931.69V681.61H3942.69V689.254ZM3934.27 729.892H3925.14V715.774H3891.68V708.286H3934.27V729.892ZM3907.51 674.668H3898.23V664.528H3907.51V674.668ZM3990 677.788H3949.75V670.3H3990V677.788ZM4001.7 722.014H3944.06V714.448H4001.7V722.014ZM3965.35 716.788H3956.15V694.012H3965.35V716.788ZM3996.63 676.618C3996.63 682.078 3996.5 687.018 3996.24 691.438C3995.98 695.806 3995.33 700.902 3994.29 706.726L3985.24 705.79C3986.23 700.33 3986.85 695.442 3987.11 691.126C3987.37 686.81 3987.5 681.974 3987.5 676.618V670.3H3996.63V676.618ZM3981.03 716.788H3971.9V694.012H3981.03V716.788ZM4071.89 699.784H4062.77V664.762H4071.89V699.784ZM4038.59 708.52H4062.85V702.592H4071.89V729.19H4029.62V702.592H4038.59V708.52ZM4062.85 721.624V715.696H4038.59V721.624H4062.85ZM4037.34 667.414C4040.56 667.414 4043.48 668.09 4046.08 669.442C4048.73 670.742 4050.81 672.588 4052.32 674.98C4053.82 677.32 4054.58 679.972 4054.58 682.936C4054.58 685.9 4053.82 688.552 4052.32 690.892C4050.81 693.18 4048.73 694.974 4046.08 696.274C4043.48 697.574 4040.56 698.224 4037.34 698.224C4034.06 698.224 4031.1 697.574 4028.45 696.274C4025.8 694.974 4023.72 693.18 4022.21 690.892C4020.7 688.552 4019.95 685.9 4019.95 682.936C4019.95 679.972 4020.7 677.32 4022.21 674.98C4023.72 672.588 4025.8 670.742 4028.45 669.442C4031.1 668.09 4034.06 667.414 4037.34 667.414ZM4037.34 675.214C4034.84 675.214 4032.79 675.916 4031.18 677.32C4029.62 678.672 4028.84 680.544 4028.84 682.936C4028.84 685.276 4029.62 687.122 4031.18 688.474C4032.79 689.826 4034.84 690.502 4037.34 690.502C4039.78 690.502 4041.76 689.826 4043.27 688.474C4044.78 687.122 4045.53 685.276 4045.53 682.936C4045.53 680.544 4044.78 678.672 4043.27 677.32C4041.76 675.916 4039.78 675.214 4037.34 675.214ZM4116.55 677.788H4079.03V670.534H4116.55V677.788ZM4097.83 679.972C4100.85 679.972 4103.53 680.492 4105.87 681.532C4108.26 682.52 4110.1 683.924 4111.4 685.744C4112.76 687.512 4113.43 689.566 4113.43 691.906C4113.43 694.246 4112.76 696.326 4111.4 698.146C4110.1 699.966 4108.26 701.396 4105.87 702.436C4103.53 703.424 4100.85 703.918 4097.83 703.918C4094.82 703.918 4092.11 703.424 4089.72 702.436C4087.33 701.396 4085.46 699.966 4084.1 698.146C4082.8 696.326 4082.15 694.246 4082.15 691.906C4082.15 689.566 4082.83 687.512 4084.18 685.744C4085.53 683.924 4087.38 682.52 4089.72 681.532C4092.11 680.492 4094.82 679.972 4097.83 679.972ZM4097.83 686.914C4095.75 686.914 4094.09 687.356 4092.84 688.24C4091.64 689.072 4091.05 690.294 4091.05 691.906C4091.05 693.518 4091.64 694.74 4092.84 695.572C4094.09 696.404 4095.75 696.82 4097.83 696.82C4099.91 696.82 4101.55 696.404 4102.75 695.572C4103.99 694.74 4104.62 693.518 4104.62 691.906C4104.62 690.294 4103.99 689.072 4102.75 688.24C4101.55 687.356 4099.91 686.914 4097.83 686.914ZM4129.27 705.634H4120.14V664.762H4129.27V705.634ZM4137.69 689.254H4126.69V681.61H4137.69V689.254ZM4129.27 729.892H4120.14V715.774H4086.68V708.286H4129.27V729.892ZM4102.51 674.668H4093.23V664.528H4102.51V674.668Z" fill="#FF0091"/>
<path d="M3706.69 628.114V624.877C3730.76 602.882 3733.67 596.574 3733.42 587.195C3733.17 577.65 3727.94 574.662 3722.05 574.911C3716.16 575.16 3712.25 578.978 3709.85 583.377L3706.61 581.551C3710.1 575.741 3716.32 571.508 3723.38 571.259C3738.15 570.678 3742.88 578.729 3742.88 587.444C3742.88 597.155 3733.25 604.625 3716.57 620.561L3716.65 620.727H3743.3V628.114H3706.69ZM3797.15 600.475C3797.15 617.739 3789.18 629.11 3774.99 629.11C3760.8 629.11 3752.83 617.739 3752.83 600.475C3752.83 583.211 3760.8 571.923 3774.99 571.923C3789.18 571.923 3797.15 583.211 3797.15 600.475ZM3762.29 600.475C3762.29 617.241 3766.94 626.205 3774.99 626.205C3783.04 626.205 3787.69 617.241 3787.69 600.475C3787.69 583.709 3783.04 574.662 3774.99 574.662C3766.94 574.662 3762.29 583.709 3762.29 600.475ZM3806.07 628.114V624.877C3830.14 602.882 3833.04 596.574 3832.79 587.195C3832.54 577.65 3827.32 574.662 3821.42 574.911C3815.53 575.16 3811.63 578.978 3809.22 583.377L3805.98 581.551C3809.47 575.741 3815.7 571.508 3822.75 571.259C3837.52 570.678 3842.26 578.729 3842.26 587.444C3842.26 597.155 3832.63 604.625 3815.94 620.561L3816.03 620.727H3842.67V628.114H3806.07ZM3870.46 571.176V628.114H3861.75V579.31L3853.7 584.622L3851.79 581.717L3868.55 571.176H3870.46ZM3885.79 600.475V596.159H3919.82V600.475H3885.79ZM3974.5 600.475C3974.5 617.739 3966.53 629.11 3952.34 629.11C3938.15 629.11 3930.18 617.739 3930.18 600.475C3930.18 583.211 3938.15 571.923 3952.34 571.923C3966.53 571.923 3974.5 583.211 3974.5 600.475ZM3939.64 600.475C3939.64 617.241 3944.29 626.205 3952.34 626.205C3960.39 626.205 3965.04 617.241 3965.04 600.475C3965.04 583.709 3960.39 574.662 3952.34 574.662C3944.29 574.662 3939.64 583.709 3939.64 600.475ZM3992.23 597.404H3993.56C3999.79 597.404 4007.01 592.258 4007.01 585.037C4007.01 578.065 4002.86 574.496 3997.38 574.496C3992.48 574.496 3988.75 575.575 3984.51 581.717L3981.69 580.057C3985.26 575.16 3990.24 571.342 3999.12 571.342C4011.65 571.342 4016.14 576.986 4016.14 584.705C4016.14 591.096 4010.33 595.495 4003.35 597.902V598.649C4011.9 599.811 4018.21 603.131 4018.21 612.427C4018.21 622.387 4008.92 629.608 3997.96 629.608C3988.41 629.608 3985.26 627.782 3980.36 623.383L3982.77 621.059C3988.08 625.956 3991.73 626.288 3996.8 626.288C4004.43 626.288 4008.25 620.561 4008.25 612.842C4008.25 605.87 4004.93 601.056 3995.05 601.056H3992.23V597.404Z" fill="#FF0091"/>
<path d="M4482.04 431.959H4444.52V424.705H4482.04V431.959ZM4463.32 434.143C4466.33 434.143 4469.01 434.663 4471.35 435.703C4473.74 436.691 4475.59 438.095 4476.89 439.915C4478.24 441.683 4478.92 443.737 4478.92 446.077C4478.92 448.417 4478.24 450.497 4476.89 452.317C4475.59 454.137 4473.74 455.567 4471.35 456.607C4469.01 457.595 4466.33 458.089 4463.32 458.089C4460.3 458.089 4457.6 457.595 4455.2 456.607C4452.81 455.567 4450.94 454.137 4449.59 452.317C4448.29 450.497 4447.64 448.417 4447.64 446.077C4447.64 443.737 4448.31 441.683 4449.67 439.915C4451.02 438.095 4452.86 436.691 4455.2 435.703C4457.6 434.663 4460.3 434.143 4463.32 434.143ZM4463.32 441.085C4461.24 441.085 4459.57 441.527 4458.32 442.411C4457.13 443.243 4456.53 444.465 4456.53 446.077C4456.53 447.689 4457.13 448.911 4458.32 449.743C4459.57 450.575 4461.24 450.991 4463.32 450.991C4465.4 450.991 4467.03 450.575 4468.23 449.743C4469.48 448.911 4470.1 447.689 4470.1 446.077C4470.1 444.465 4469.48 443.243 4468.23 442.411C4467.03 441.527 4465.4 441.085 4463.32 441.085ZM4494.75 459.805H4485.62V418.933H4494.75V459.805ZM4503.17 443.425H4492.18V435.781H4503.17V443.425ZM4494.75 484.063H4485.62V469.945H4452.16V462.457H4494.75V484.063ZM4468 428.839H4458.71V418.699H4468V428.839ZM4550.48 431.959H4510.24V424.471H4550.48V431.959ZM4562.18 476.185H4504.54V468.619H4562.18V476.185ZM4525.84 470.959H4516.63V448.183H4525.84V470.959ZM4557.11 430.789C4557.11 436.249 4556.98 441.189 4556.72 445.609C4556.46 449.977 4555.81 455.073 4554.77 460.897L4545.73 459.961C4546.71 454.501 4547.34 449.613 4547.6 445.297C4547.86 440.981 4547.99 436.145 4547.99 430.789V424.471H4557.11V430.789ZM4541.51 470.959H4532.39V448.183H4541.51V470.959ZM4637.14 456.685H4579.49V449.353H4637.14V456.685ZM4608.28 460.273C4615.19 460.273 4620.57 461.313 4624.42 463.393C4628.32 465.421 4630.27 468.359 4630.27 472.207C4630.27 475.951 4628.32 478.863 4624.42 480.943C4620.52 483.023 4615.14 484.063 4608.28 484.063C4601.31 484.063 4595.85 483.023 4591.9 480.943C4588 478.863 4586.05 475.951 4586.05 472.207C4586.05 468.359 4588 465.421 4591.9 463.393C4595.8 461.313 4601.26 460.273 4608.28 460.273ZM4608.28 467.215C4603.91 467.215 4600.66 467.631 4598.53 468.463C4596.45 469.243 4595.41 470.491 4595.41 472.207C4595.41 473.819 4596.47 475.041 4598.6 475.873C4600.74 476.653 4603.96 477.043 4608.28 477.043C4616.8 477.043 4621.07 475.431 4621.07 472.207C4621.07 468.879 4616.8 467.215 4608.28 467.215ZM4608.35 420.337C4612.98 420.337 4617.01 420.857 4620.44 421.897C4623.93 422.937 4626.61 424.419 4628.48 426.343C4630.35 428.215 4631.29 430.451 4631.29 433.051C4631.29 437.055 4629.21 440.201 4625.05 442.489C4620.94 444.725 4615.37 445.843 4608.35 445.843C4601.28 445.843 4595.67 444.725 4591.51 442.489C4587.35 440.201 4585.27 437.055 4585.27 433.051C4585.27 430.451 4586.2 428.215 4588.07 426.343C4590 424.419 4592.7 422.937 4596.19 421.897C4599.67 420.857 4603.73 420.337 4608.35 420.337ZM4608.35 427.591C4599.25 427.591 4594.7 429.411 4594.7 433.051C4594.7 434.871 4595.87 436.249 4598.21 437.185C4600.55 438.121 4603.93 438.589 4608.35 438.589C4612.72 438.589 4616.08 438.121 4618.42 437.185C4620.76 436.249 4621.93 434.871 4621.93 433.051C4621.93 431.231 4620.76 429.879 4618.42 428.995C4616.08 428.059 4612.72 427.591 4608.35 427.591ZM4665.18 466.669H4656.05V452.317H4665.18V466.669ZM4693.18 468.151H4683.98V419.011H4693.18V468.151ZM4694.51 482.893H4647.32V475.483H4694.51V482.893ZM4656.44 477.355H4647.32V463.549H4656.44V477.355ZM4642.48 447.793C4650.85 447.637 4657.82 447.429 4663.39 447.169C4669 446.909 4674.46 446.467 4679.77 445.843L4680.31 452.473C4669.76 454.293 4656.44 455.203 4640.38 455.203L4639.28 447.871L4642.48 447.793ZM4686.01 463.081H4671.97V456.841H4686.01V463.081ZM4659.8 421.195C4662.87 421.195 4665.6 421.689 4667.99 422.677C4670.38 423.665 4672.23 425.043 4673.53 426.811C4674.88 428.579 4675.55 430.607 4675.55 432.895C4675.55 436.327 4674.1 439.109 4671.19 441.241C4668.27 443.373 4664.48 444.439 4659.8 444.439C4656.73 444.439 4654 443.971 4651.61 443.035C4649.22 442.047 4647.34 440.695 4645.99 438.979C4644.64 437.211 4643.96 435.183 4643.96 432.895C4643.96 430.607 4644.64 428.579 4645.99 426.811C4647.34 425.043 4649.22 423.665 4651.61 422.677C4654 421.689 4656.73 421.195 4659.8 421.195ZM4659.8 427.981C4657.61 427.981 4655.85 428.423 4654.49 429.307C4653.19 430.139 4652.54 431.335 4652.54 432.895C4652.54 434.403 4653.19 435.573 4654.49 436.405C4655.79 437.185 4657.56 437.575 4659.8 437.575C4661.93 437.575 4663.65 437.185 4664.95 436.405C4666.3 435.573 4666.97 434.403 4666.97 432.895C4666.97 431.335 4666.3 430.139 4664.95 429.307C4663.65 428.423 4661.93 427.981 4659.8 427.981ZM4749.77 465.967H4740.65V419.011H4749.77V465.967ZM4758.28 444.283H4747.12V436.561H4758.28V444.283ZM4707.42 447.793C4714.86 447.793 4720.5 447.689 4724.35 447.481C4728.25 447.221 4731.99 446.675 4735.58 445.843L4736.59 453.331C4732.8 454.111 4728.82 454.631 4724.66 454.891C4720.55 455.151 4714.8 455.281 4707.42 455.281H4702.04V447.793H4707.42ZM4730.59 431.569H4711.16V451.849H4702.04V424.159H4730.59V431.569ZM4751.96 482.893H4708.75V475.483H4751.96V482.893ZM4717.79 479.227H4708.75V461.053H4717.79V479.227ZM4825.12 457.231H4815.91V418.933H4825.12V457.231ZM4833.07 442.021H4821.92V434.221H4833.07V442.021ZM4825.12 474.235H4791.42V479.461H4782.22V468.619H4815.99V465.733H4782.22V459.649H4825.12V474.235ZM4827.22 483.595H4782.22V477.433H4827.22V483.595ZM4798.13 454.189H4788.92V444.985H4798.13V454.189ZM4773.87 450.211C4781.57 450.211 4788.59 450.107 4794.93 449.899C4801.33 449.691 4807.41 449.197 4813.18 448.417L4813.81 454.189C4807.88 455.177 4801.79 455.827 4795.55 456.139C4789.37 456.399 4782.42 456.529 4774.73 456.529L4773.87 450.211ZM4811.62 429.151H4775.43V422.989H4811.62V429.151ZM4793.53 430.477C4798.21 430.477 4801.95 431.231 4804.76 432.739C4807.57 434.247 4808.97 436.301 4808.97 438.901C4808.97 441.605 4807.57 443.711 4804.76 445.219C4802 446.727 4798.26 447.481 4793.53 447.481C4788.74 447.481 4784.95 446.727 4782.14 445.219C4779.33 443.711 4777.93 441.605 4777.93 438.901C4777.93 436.249 4779.33 434.195 4782.14 432.739C4784.95 431.231 4788.74 430.477 4793.53 430.477ZM4793.53 436.249C4789 436.249 4786.74 437.133 4786.74 438.901C4786.74 440.721 4789 441.631 4793.53 441.631C4798 441.631 4800.23 440.721 4800.23 438.901C4800.23 437.133 4798 436.249 4793.53 436.249ZM4798.13 426.499H4788.92V418.465H4798.13V426.499ZM4892.39 456.919H4834.52V449.587H4892.39V456.919ZM4867.9 452.473H4858.93V439.759H4867.9V452.473ZM4885.69 444.205H4841.46V436.795H4885.69V444.205ZM4885.45 429.073H4850.59V441.553H4841.46V421.897H4885.45V429.073ZM4863.3 460.195C4870.22 460.195 4875.6 461.235 4879.45 463.315C4883.35 465.395 4885.3 468.359 4885.3 472.207C4885.3 475.951 4883.35 478.863 4879.45 480.943C4875.6 483.075 4870.22 484.141 4863.3 484.141C4856.38 484.141 4850.95 483.075 4847 480.943C4843.05 478.863 4841.07 475.951 4841.07 472.207C4841.07 468.359 4843.02 465.395 4846.92 463.315C4850.87 461.235 4856.33 460.195 4863.3 460.195ZM4863.3 467.293C4858.93 467.293 4855.68 467.709 4853.55 468.541C4851.47 469.321 4850.43 470.543 4850.43 472.207C4850.43 473.819 4851.47 475.015 4853.55 475.795C4855.68 476.575 4858.93 476.965 4863.3 476.965C4871.83 476.965 4876.09 475.379 4876.09 472.207C4876.09 468.931 4871.83 467.293 4863.3 467.293ZM4932.48 433.441C4932.48 442.229 4930.95 450.029 4927.88 456.841C4924.81 463.601 4920.21 468.411 4914.07 471.271L4908.69 463.471C4914.05 461.131 4918.08 457.231 4920.78 451.771C4923.54 446.311 4924.91 440.201 4924.91 433.441V423.925H4932.48V433.441ZM4934.27 433.441C4934.27 439.785 4935.6 445.583 4938.25 450.835C4940.96 456.087 4944.88 459.857 4950.03 462.145L4944.65 469.633C4938.77 466.825 4934.33 462.197 4931.31 455.749C4928.29 449.249 4926.79 441.813 4926.79 433.441V423.925H4934.27V433.441ZM4962.35 484.141H4953.15V418.933H4962.35V484.141ZM4991.18 429.697C4991.18 436.145 4989.67 441.839 4986.65 446.779C4983.64 451.667 4979.19 455.073 4973.32 456.997L4968.64 449.821C4973.68 448.157 4977.45 445.505 4979.95 441.865C4982.44 438.173 4983.69 434.117 4983.69 429.697V425.563H4991.18V429.697ZM4993.05 429.775C4993.05 433.883 4994.25 437.653 4996.64 441.085C4999.08 444.517 5002.75 447.065 5007.64 448.729L5003.03 455.905C4997.26 453.981 4992.89 450.679 4989.93 445.999C4987.02 441.267 4985.56 435.859 4985.56 429.775V425.563H4993.05V429.775ZM5005.45 430.165H4970.98V422.677H5005.45V430.165ZM5019.73 458.245H5010.52V418.933H5019.73V458.245ZM5028.07 442.411H5017.15V434.689H5028.07V442.411ZM5019.73 484.063H5010.52V468.463H4977.14V460.975H5019.73V484.063Z" fill="#FF0091"/>
<path d="M4447.25 382.285V379.048C4471.32 357.053 4474.22 350.745 4473.97 341.366C4473.73 331.821 4468.5 328.833 4462.6 329.082C4456.71 329.331 4452.81 333.149 4450.4 337.548L4447.17 335.722C4450.65 329.912 4456.88 325.679 4463.93 325.43C4478.71 324.849 4483.44 332.9 4483.44 341.615C4483.44 351.326 4473.81 358.796 4457.13 374.732L4457.21 374.898H4483.85V382.285H4447.25ZM4537.71 354.646C4537.71 371.91 4529.74 383.281 4515.55 383.281C4501.35 383.281 4493.38 371.91 4493.38 354.646C4493.38 337.382 4501.35 326.094 4515.55 326.094C4529.74 326.094 4537.71 337.382 4537.71 354.646ZM4502.85 354.646C4502.85 371.412 4507.49 380.376 4515.55 380.376C4523.6 380.376 4528.24 371.412 4528.24 354.646C4528.24 337.88 4523.6 328.833 4515.55 328.833C4507.49 328.833 4502.85 337.88 4502.85 354.646ZM4546.62 382.285V379.048C4570.69 357.053 4573.6 350.745 4573.35 341.366C4573.1 331.821 4567.87 328.833 4561.98 329.082C4556.08 329.331 4552.18 333.149 4549.78 337.548L4546.54 335.722C4550.02 329.912 4556.25 325.679 4563.3 325.43C4578.08 324.849 4582.81 332.9 4582.81 341.615C4582.81 351.326 4573.18 358.796 4556.5 374.732L4556.58 374.898H4583.22V382.285H4546.62ZM4611.02 325.347V382.285H4602.3V333.481L4594.25 338.793L4592.34 335.888L4609.11 325.347H4611.02ZM4626.34 354.646V350.33H4660.37V354.646H4626.34ZM4715.05 354.646C4715.05 371.91 4707.09 383.281 4692.89 383.281C4678.7 383.281 4670.73 371.91 4670.73 354.646C4670.73 337.382 4678.7 326.094 4692.89 326.094C4707.09 326.094 4715.05 337.382 4715.05 354.646ZM4680.19 354.646C4680.19 371.412 4684.84 380.376 4692.89 380.376C4700.94 380.376 4705.59 371.412 4705.59 354.646C4705.59 337.88 4700.94 328.833 4692.89 328.833C4684.84 328.833 4680.19 337.88 4680.19 354.646ZM4748.04 382.368V369.669H4722.14V363.61L4753.19 324.6H4756.34V362.531H4765.22V369.669H4756.34V382.368H4748.04ZM4727.21 362.531H4748.04V336.386H4747.87L4727.21 362.531Z" fill="#FF0091"/>
<path d="M5242.72 702.514H5185.08V695.182H5242.72V702.514ZM5213.86 706.102C5220.78 706.102 5226.16 707.142 5230.01 709.222C5233.91 711.25 5235.86 714.188 5235.86 718.036C5235.86 721.78 5233.91 724.692 5230.01 726.772C5226.11 728.852 5220.73 729.892 5213.86 729.892C5206.89 729.892 5201.43 728.852 5197.48 726.772C5193.58 724.692 5191.63 721.78 5191.63 718.036C5191.63 714.188 5193.58 711.25 5197.48 709.222C5201.38 707.142 5206.84 706.102 5213.86 706.102ZM5213.86 713.044C5209.49 713.044 5206.24 713.46 5204.11 714.292C5202.03 715.072 5200.99 716.32 5200.99 718.036C5200.99 719.648 5202.06 720.87 5204.19 721.702C5206.32 722.482 5209.55 722.872 5213.86 722.872C5222.39 722.872 5226.65 721.26 5226.65 718.036C5226.65 714.708 5222.39 713.044 5213.86 713.044ZM5213.94 666.166C5218.57 666.166 5222.6 666.686 5226.03 667.726C5229.51 668.766 5232.19 670.248 5234.06 672.172C5235.94 674.044 5236.87 676.28 5236.87 678.88C5236.87 682.884 5234.79 686.03 5230.63 688.318C5226.52 690.554 5220.96 691.672 5213.94 691.672C5206.87 691.672 5201.25 690.554 5197.09 688.318C5192.93 686.03 5190.85 682.884 5190.85 678.88C5190.85 676.28 5191.79 674.044 5193.66 672.172C5195.58 670.248 5198.29 668.766 5201.77 667.726C5205.26 666.686 5209.31 666.166 5213.94 666.166ZM5213.94 673.42C5204.84 673.42 5200.29 675.24 5200.29 678.88C5200.29 680.7 5201.46 682.078 5203.8 683.014C5206.14 683.95 5209.52 684.418 5213.94 684.418C5218.31 684.418 5221.66 683.95 5224 683.014C5226.34 682.078 5227.51 680.7 5227.51 678.88C5227.51 677.06 5226.34 675.708 5224 674.824C5221.66 673.888 5218.31 673.42 5213.94 673.42ZM5270.77 712.498H5261.64V698.146H5270.77V712.498ZM5298.77 713.98H5289.56V664.84H5298.77V713.98ZM5300.09 728.722H5252.9V721.312H5300.09V728.722ZM5262.03 723.184H5252.9V709.378H5262.03V723.184ZM5248.07 693.622C5256.44 693.466 5263.41 693.258 5268.97 692.998C5274.59 692.738 5280.05 692.296 5285.35 691.672L5285.9 698.302C5275.34 700.122 5262.03 701.032 5245.96 701.032L5244.87 693.7L5248.07 693.622ZM5291.59 708.91H5277.55V702.67H5291.59V708.91ZM5265.38 667.024C5268.45 667.024 5271.18 667.518 5273.57 668.506C5275.97 669.494 5277.81 670.872 5279.11 672.64C5280.46 674.408 5281.14 676.436 5281.14 678.724C5281.14 682.156 5279.68 684.938 5276.77 687.07C5273.86 689.202 5270.06 690.268 5265.38 690.268C5262.32 690.268 5259.59 689.8 5257.19 688.864C5254.8 687.876 5252.93 686.524 5251.58 684.808C5250.23 683.04 5249.55 681.012 5249.55 678.724C5249.55 676.436 5250.23 674.408 5251.58 672.64C5252.93 670.872 5254.8 669.494 5257.19 668.506C5259.59 667.518 5262.32 667.024 5265.38 667.024ZM5265.38 673.81C5263.2 673.81 5261.43 674.252 5260.08 675.136C5258.78 675.968 5258.13 677.164 5258.13 678.724C5258.13 680.232 5258.78 681.402 5260.08 682.234C5261.38 683.014 5263.15 683.404 5265.38 683.404C5267.52 683.404 5269.23 683.014 5270.53 682.234C5271.88 681.402 5272.56 680.232 5272.56 678.724C5272.56 677.164 5271.88 675.968 5270.53 675.136C5269.23 674.252 5267.52 673.81 5265.38 673.81ZM5355.36 711.796H5346.23V664.84H5355.36V711.796ZM5363.86 690.112H5352.71V682.39H5363.86V690.112ZM5313.01 693.622C5320.44 693.622 5326.08 693.518 5329.93 693.31C5333.83 693.05 5337.58 692.504 5341.16 691.672L5342.18 699.16C5338.38 699.94 5334.4 700.46 5330.24 700.72C5326.14 700.98 5320.39 701.11 5313.01 701.11H5307.62V693.622H5313.01ZM5336.17 677.398H5316.75V697.678H5307.62V669.988H5336.17V677.398ZM5357.54 728.722H5314.33V721.312H5357.54V728.722ZM5323.38 725.056H5314.33V706.882H5323.38V725.056ZM5412.22 669.754C5412.22 673.914 5411.15 677.788 5409.02 681.376C5406.94 684.964 5403.9 687.98 5399.89 690.424C5395.94 692.868 5391.26 694.506 5385.85 695.338L5382.34 687.772C5386.97 687.2 5390.92 685.978 5394.2 684.106C5397.47 682.234 5399.94 680.024 5401.61 677.476C5403.27 674.928 5404.1 672.354 5404.1 669.754V666.634H5412.22V669.754ZM5413.85 669.754C5413.85 672.406 5414.69 675.006 5416.35 677.554C5418.01 680.05 5420.48 682.234 5423.76 684.106C5427.04 685.978 5431.01 687.2 5435.69 687.772L5432.18 695.338C5426.72 694.506 5421.99 692.868 5417.99 690.424C5414.04 687.98 5411.02 684.964 5408.94 681.376C5406.86 677.788 5405.82 673.914 5405.82 669.754V666.634H5413.85V669.754ZM5413.31 729.892H5404.18V706.102H5413.31V729.892ZM5437.72 707.662H5380.08V700.096H5437.72V707.662ZM5463.74 718.036H5454.77V702.748H5463.74V718.036ZM5483.94 718.036H5474.97V702.67H5483.94V718.036ZM5497.9 722.716H5440.1V715.072H5497.9V722.716ZM5491.35 690.658H5455.86V701.5H5446.73V683.248H5482.22V676.54H5446.66V668.974H5491.35V690.658ZM5492.75 705.244H5446.73V697.678H5492.75V705.244Z" fill="#FF0091"/>
<path d="M5187.81 628.114V624.877C5211.88 602.882 5214.79 596.574 5214.54 587.195C5214.29 577.65 5209.06 574.662 5203.17 574.911C5197.27 575.16 5193.37 578.978 5190.97 583.377L5187.73 581.551C5191.21 575.741 5197.44 571.508 5204.49 571.259C5219.27 570.678 5224 578.729 5224 587.444C5224 597.155 5214.37 604.625 5197.69 620.561L5197.77 620.727H5224.41V628.114H5187.81ZM5278.27 600.475C5278.27 617.739 5270.3 629.11 5256.11 629.11C5241.91 629.11 5233.95 617.739 5233.95 600.475C5233.95 583.211 5241.91 571.923 5256.11 571.923C5270.3 571.923 5278.27 583.211 5278.27 600.475ZM5243.41 600.475C5243.41 617.241 5248.06 626.205 5256.11 626.205C5264.16 626.205 5268.81 617.241 5268.81 600.475C5268.81 583.709 5264.16 574.662 5256.11 574.662C5248.06 574.662 5243.41 583.709 5243.41 600.475ZM5287.18 628.114V624.877C5311.25 602.882 5314.16 596.574 5313.91 587.195C5313.66 577.65 5308.43 574.662 5302.54 574.911C5296.65 575.16 5292.75 578.978 5290.34 583.377L5287.1 581.551C5290.59 575.741 5296.81 571.508 5303.87 571.259C5318.64 570.678 5323.37 578.729 5323.37 587.444C5323.37 597.155 5313.74 604.625 5297.06 620.561L5297.14 620.727H5323.79V628.114H5287.18ZM5332.66 628.114V624.877C5356.73 602.882 5359.63 596.574 5359.38 587.195C5359.13 577.65 5353.9 574.662 5348.01 574.911C5342.12 575.16 5338.22 578.978 5335.81 583.377L5332.57 581.551C5336.06 575.741 5342.28 571.508 5349.34 571.259C5364.11 570.678 5368.84 578.729 5368.84 587.444C5368.84 597.155 5359.22 604.625 5342.53 620.561L5342.62 620.727H5369.26V628.114H5332.66ZM5380.04 600.475V596.159H5414.07V600.475H5380.04ZM5442.69 571.176V628.114H5433.97V579.31L5425.92 584.622L5424.01 581.717L5440.78 571.176H5442.69ZM5479.16 571.176V628.114H5470.44V579.31L5462.39 584.622L5460.48 581.717L5477.25 571.176H5479.16Z" fill="#FF0091"/>
<path d="M5947.32 433.051C5947.32 439.031 5945.81 444.309 5942.8 448.885C5939.83 453.409 5935.44 456.581 5929.62 458.401L5925.25 450.991C5930.14 449.483 5933.8 447.117 5936.25 443.893C5938.74 440.617 5939.99 437.003 5939.99 433.051V430.789H5947.32V433.051ZM5949.04 433.051C5949.04 436.691 5950.26 440.019 5952.7 443.035C5955.2 445.999 5958.89 448.105 5963.78 449.353L5959.57 456.685C5953.69 455.021 5949.25 452.083 5946.23 447.871C5943.21 443.607 5941.71 438.667 5941.71 433.051V430.789H5949.04V433.051ZM5961.67 432.973H5927.43V425.641H5961.67V432.973ZM5949.12 428.761H5939.99V418.855H5949.12V428.761ZM5972.13 443.815H5959.96V436.249H5972.13V443.815ZM5978.99 463.237H5969.79V418.933H5978.99V463.237ZM5960.82 460.507C5960.82 464.199 5959.85 467.683 5957.93 470.959C5956.01 474.183 5953.17 476.939 5949.43 479.227C5945.74 481.515 5941.32 483.023 5936.17 483.751L5932.89 476.419C5937.1 475.795 5940.72 474.651 5943.73 472.987C5946.8 471.323 5949.09 469.399 5950.6 467.215C5952.16 464.979 5952.94 462.743 5952.94 460.507V459.493H5960.82V460.507ZM5962.38 460.507C5962.38 462.847 5963.1 465.135 5964.56 467.371C5966.07 469.555 5968.33 471.479 5971.35 473.143C5974.36 474.755 5978.05 475.847 5982.42 476.419L5979.07 483.751C5973.87 483.023 5969.42 481.541 5965.73 479.305C5962.09 477.069 5959.31 474.339 5957.38 471.115C5955.51 467.839 5954.58 464.303 5954.58 460.507V459.493H5962.38V460.507ZM6053.55 465.733H6044.35V419.011H6053.55V465.733ZM6055.19 482.893H6011.12V475.483H6055.19V482.893ZM6020.33 478.447H6011.12V461.053H6020.33V478.447ZM6018.84 423.145C6022.07 423.145 6025.01 423.847 6027.66 425.251C6030.31 426.655 6032.39 428.631 6033.9 431.179C6035.46 433.675 6036.24 436.483 6036.24 439.603C6036.24 442.775 6035.46 445.609 6033.9 448.105C6032.39 450.601 6030.31 452.551 6027.66 453.955C6025.01 455.359 6022.07 456.061 6018.84 456.061C6015.62 456.061 6012.68 455.359 6010.03 453.955C6007.43 452.551 6005.35 450.601 6003.79 448.105C6002.28 445.609 6001.53 442.775 6001.53 439.603C6001.53 436.483 6002.28 433.675 6003.79 431.179C6005.35 428.631 6007.46 426.655 6010.11 425.251C6012.76 423.847 6015.67 423.145 6018.84 423.145ZM6018.84 431.257C6016.45 431.257 6014.45 432.011 6012.84 433.519C6011.28 435.027 6010.5 437.055 6010.5 439.603C6010.5 442.203 6011.28 444.257 6012.84 445.765C6014.45 447.221 6016.45 447.949 6018.84 447.949C6021.24 447.949 6023.21 447.221 6024.77 445.765C6026.33 444.257 6027.11 442.203 6027.11 439.603C6027.11 437.055 6026.33 435.027 6024.77 433.519C6023.21 432.011 6021.24 431.257 6018.84 431.257ZM6106.01 443.971H6094.16V436.561H6106.01V443.971ZM6114.05 466.981H6104.84V419.011H6114.05V466.981ZM6115.45 482.893H6071.77V475.483H6115.45V482.893ZM6080.97 480.709H6071.77V462.925H6080.97V480.709ZM6068.57 450.835C6074.97 450.835 6079.99 450.757 6083.63 450.601C6087.32 450.393 6091.01 449.951 6094.7 449.275L6095.48 456.607C6091.69 457.335 6087.84 457.829 6083.94 458.089C6080.09 458.297 6074.97 458.401 6068.57 458.401H6063.66V450.835H6068.57ZM6092.52 431.413H6072.71V451.537H6063.66V423.925H6092.52V431.413ZM6090.57 444.595H6069.98V437.341H6090.57V444.595ZM6124.23 423.535H6134.6L6133.59 462.847H6125.24L6124.23 423.535ZM6123.91 474.937C6123.91 473.377 6124.41 472.103 6125.4 471.115C6126.44 470.075 6127.81 469.555 6129.53 469.555C6131.19 469.555 6132.52 470.075 6133.51 471.115C6134.55 472.103 6135.07 473.377 6135.07 474.937C6135.07 476.445 6134.55 477.693 6133.51 478.681C6132.52 479.669 6131.19 480.163 6129.53 480.163C6127.81 480.163 6126.44 479.669 6125.4 478.681C6124.41 477.693 6123.91 476.445 6123.91 474.937Z" fill="#FF0091"/>
<path d="M5928.37 382.285V379.048C5952.44 357.053 5955.34 350.745 5955.1 341.366C5954.85 331.821 5949.62 328.833 5943.72 329.082C5937.83 329.331 5933.93 333.149 5931.52 337.548L5928.29 335.722C5931.77 329.912 5938 325.679 5945.05 325.43C5959.83 324.849 5964.56 332.9 5964.56 341.615C5964.56 351.326 5954.93 358.796 5938.25 374.732L5938.33 374.898H5964.97V382.285H5928.37ZM6018.83 354.646C6018.83 371.91 6010.86 383.281 5996.67 383.281C5982.47 383.281 5974.51 371.91 5974.51 354.646C5974.51 337.382 5982.47 326.094 5996.67 326.094C6010.86 326.094 6018.83 337.382 6018.83 354.646ZM5983.97 354.646C5983.97 371.412 5988.62 380.376 5996.67 380.376C6004.72 380.376 6009.37 371.412 6009.37 354.646C6009.37 337.88 6004.72 328.833 5996.67 328.833C5988.62 328.833 5983.97 337.88 5983.97 354.646ZM6027.74 382.285V379.048C6051.81 357.053 6054.72 350.745 6054.47 341.366C6054.22 331.821 6048.99 328.833 6043.1 329.082C6037.2 329.331 6033.3 333.149 6030.9 337.548L6027.66 335.722C6031.15 329.912 6037.37 325.679 6044.43 325.43C6059.2 324.849 6063.93 332.9 6063.93 341.615C6063.93 351.326 6054.3 358.796 6037.62 374.732L6037.7 374.898H6064.35V382.285H6027.74ZM6082.84 351.575H6084.17C6090.4 351.575 6097.62 346.429 6097.62 339.208C6097.62 332.236 6093.47 328.667 6087.99 328.667C6083.09 328.667 6079.36 329.746 6075.12 335.888L6072.3 334.228C6075.87 329.331 6080.85 325.513 6089.73 325.513C6102.26 325.513 6106.75 331.157 6106.75 338.876C6106.75 345.267 6100.94 349.666 6093.96 352.073V352.82C6102.51 353.982 6108.82 357.302 6108.82 366.598C6108.82 376.558 6099.53 383.779 6088.57 383.779C6079.02 383.779 6075.87 381.953 6070.97 377.554L6073.38 375.23C6078.69 380.127 6082.34 380.459 6087.41 380.459C6095.04 380.459 6098.86 374.732 6098.86 367.013C6098.86 360.041 6095.54 355.227 6085.66 355.227H6082.84V351.575ZM6117.92 354.646V350.33H6151.95V354.646H6117.92ZM6206.63 354.646C6206.63 371.91 6198.66 383.281 6184.47 383.281C6170.28 383.281 6162.31 371.91 6162.31 354.646C6162.31 337.382 6170.28 326.094 6184.47 326.094C6198.66 326.094 6206.63 337.382 6206.63 354.646ZM6171.77 354.646C6171.77 371.412 6176.42 380.376 6184.47 380.376C6192.52 380.376 6197.17 371.412 6197.17 354.646C6197.17 337.88 6192.52 328.833 6184.47 328.833C6176.42 328.833 6171.77 337.88 6171.77 354.646ZM6219.2 354.978V326.592H6250.41V333.73H6222.85V352.073C6228.08 349.085 6232.98 348.504 6237.29 348.504C6248.17 348.504 6254.64 355.808 6254.64 364.772C6254.64 375.147 6247.42 383.779 6232.98 383.779C6228.49 383.779 6222.35 382.534 6217.04 378.467L6218.87 376.06C6224.34 379.463 6228.08 380.127 6233.14 380.127C6238.7 380.127 6245.09 376.475 6245.09 365.851C6245.09 357.385 6240.7 352.239 6234.06 352.239C6229.16 352.239 6224.76 353.65 6222.68 355.974L6219.2 354.978Z" fill="#FF0091"/>
<path d="M6578.03 673.263C6578.03 677.943 6576.96 682.363 6574.83 686.523C6572.75 690.683 6569.71 694.219 6565.7 697.131C6561.75 700.043 6557.1 702.071 6551.74 703.215L6547.76 695.493C6552.34 694.661 6556.32 693.101 6559.7 690.813C6563.08 688.473 6565.62 685.769 6567.34 682.701C6569.11 679.581 6569.99 676.435 6569.99 673.263V668.661H6578.03V673.263ZM6579.74 673.263C6579.74 676.539 6580.6 679.711 6582.32 682.779C6584.08 685.847 6586.66 688.525 6590.04 690.813C6593.42 693.101 6597.45 694.661 6602.13 695.493L6598.15 703.215C6592.79 702.123 6588.14 700.121 6584.19 697.209C6580.24 694.297 6577.19 690.787 6575.06 686.679C6572.98 682.519 6571.94 678.047 6571.94 673.263V668.661H6579.74V673.263ZM6604.16 722.013H6546.36V714.213H6604.16V722.013ZM6661.68 729.891H6652.87V664.761H6661.68V729.891ZM6642.81 696.741H6634.3V688.395H6642.81V696.741ZM6648.89 726.771H6640.23V666.009H6648.89V726.771ZM6635.71 679.581H6606.93V672.171H6635.71V679.581ZM6605.68 707.427C6619.67 707.427 6630.07 706.933 6636.88 705.945L6637.42 712.575C6630.09 714.239 6619.85 715.071 6606.69 715.071L6605.68 707.427ZM6618.94 709.533H6610.83V677.007H6618.94V709.533ZM6631.89 709.533H6623.46V677.007H6631.89V709.533ZM6719.37 711.561H6710.16V664.839H6719.37V711.561ZM6721 728.721H6676.93V721.311H6721V728.721ZM6686.14 724.275H6676.93V706.881H6686.14V724.275ZM6684.66 668.973C6687.88 668.973 6690.82 669.675 6693.47 671.079C6696.12 672.483 6698.2 674.459 6699.71 677.007C6701.27 679.503 6702.05 682.311 6702.05 685.431C6702.05 688.603 6701.27 691.437 6699.71 693.933C6698.2 696.429 6696.12 698.379 6693.47 699.783C6690.82 701.187 6687.88 701.889 6684.66 701.889C6681.43 701.889 6678.49 701.187 6675.84 699.783C6673.24 698.379 6671.16 696.429 6669.6 693.933C6668.09 691.437 6667.34 688.603 6667.34 685.431C6667.34 682.311 6668.09 679.503 6669.6 677.007C6671.16 674.459 6673.27 672.483 6675.92 671.079C6678.57 669.675 6681.48 668.973 6684.66 668.973ZM6684.66 677.085C6682.26 677.085 6680.26 677.839 6678.65 679.347C6677.09 680.855 6676.31 682.883 6676.31 685.431C6676.31 688.031 6677.09 690.085 6678.65 691.593C6680.26 693.049 6682.26 693.777 6684.66 693.777C6687.05 693.777 6689.02 693.049 6690.58 691.593C6692.14 690.085 6692.92 688.031 6692.92 685.431C6692.92 682.883 6692.14 680.855 6690.58 679.347C6689.02 677.839 6687.05 677.085 6684.66 677.085ZM6787.3 677.787H6747.05V670.299H6787.3V677.787ZM6799 722.013H6741.36V714.447H6799V722.013ZM6762.65 716.787H6753.45V694.011H6762.65V716.787ZM6793.93 676.617C6793.93 682.077 6793.8 687.017 6793.54 691.437C6793.28 695.805 6792.63 700.901 6791.59 706.725L6782.54 705.789C6783.53 700.329 6784.15 695.441 6784.41 691.125C6784.67 686.809 6784.8 681.973 6784.8 676.617V670.299H6793.93V676.617ZM6778.33 716.787H6769.2V694.011H6778.33V716.787ZM6852 715.617H6842.8V664.761H6852V715.617ZM6859.96 693.699H6848.8V686.133H6859.96V693.699ZM6854.11 728.721H6809.49V721.311H6854.11V728.721ZM6818.62 723.417H6809.49V712.341H6818.62V723.417ZM6825.01 705.555H6815.81V696.039H6825.01V705.555ZM6800.76 702.123C6817.29 702.123 6830.4 701.395 6840.07 699.939L6840.69 706.335C6834.87 707.479 6828.86 708.233 6822.67 708.597C6816.49 708.961 6809.47 709.195 6801.61 709.299L6800.76 702.123ZM6838.51 676.695H6802.32V669.987H6838.51V676.695ZM6820.41 678.489C6825.09 678.489 6828.84 679.399 6831.64 681.219C6834.45 682.987 6835.86 685.431 6835.86 688.551C6835.86 691.619 6834.45 694.063 6831.64 695.883C6828.84 697.703 6825.09 698.613 6820.41 698.613C6815.73 698.613 6811.96 697.703 6809.1 695.883C6806.24 694.063 6804.81 691.619 6804.81 688.551C6804.81 685.431 6806.22 682.987 6809.02 681.219C6811.88 679.399 6815.68 678.489 6820.41 678.489ZM6820.41 684.651C6815.89 684.651 6813.63 685.951 6813.63 688.551C6813.63 689.747 6814.2 690.657 6815.34 691.281C6816.54 691.905 6818.23 692.217 6820.41 692.217C6824.88 692.217 6827.12 690.995 6827.12 688.551C6827.12 685.951 6824.88 684.651 6820.41 684.651ZM6825.01 672.951H6815.81V664.605H6825.01V672.951ZM6898.92 677.787H6861.4V670.533H6898.92V677.787ZM6880.2 679.971C6883.22 679.971 6885.9 680.491 6888.24 681.531C6890.63 682.519 6892.47 683.923 6893.77 685.743C6895.13 687.511 6895.8 689.565 6895.8 691.905C6895.8 694.245 6895.13 696.325 6893.77 698.145C6892.47 699.965 6890.63 701.395 6888.24 702.435C6885.9 703.423 6883.22 703.917 6880.2 703.917C6877.19 703.917 6874.48 703.423 6872.09 702.435C6869.7 701.395 6867.83 699.965 6866.47 698.145C6865.17 696.325 6864.52 694.245 6864.52 691.905C6864.52 689.565 6865.2 687.511 6866.55 685.743C6867.9 683.923 6869.75 682.519 6872.09 681.531C6874.48 680.491 6877.19 679.971 6880.2 679.971ZM6880.2 686.913C6878.12 686.913 6876.46 687.355 6875.21 688.239C6874.01 689.071 6873.42 690.293 6873.42 691.905C6873.42 693.517 6874.01 694.739 6875.21 695.571C6876.46 696.403 6878.12 696.819 6880.2 696.819C6882.28 696.819 6883.92 696.403 6885.12 695.571C6886.36 694.739 6886.99 693.517 6886.99 691.905C6886.99 690.293 6886.36 689.071 6885.12 688.239C6883.92 687.355 6882.28 686.913 6880.2 686.913ZM6911.64 705.633H6902.51V664.761H6911.64V705.633ZM6920.06 689.253H6909.06V681.609H6920.06V689.253ZM6911.64 729.891H6902.51V715.773H6869.05V708.285H6911.64V729.891ZM6884.88 674.667H6875.6V664.527H6884.88V674.667ZM6939.99 676.305C6939.99 682.233 6938.77 687.615 6936.33 692.451C6933.93 697.235 6930.29 700.667 6925.41 702.747L6920.57 695.571C6924.73 693.647 6927.8 690.943 6929.77 687.459C6931.8 683.975 6932.82 680.257 6932.82 676.305V668.817H6939.99V676.305ZM6941.71 676.305C6941.71 680.049 6942.67 683.481 6944.59 686.601C6946.57 689.669 6949.53 691.983 6953.49 693.543L6948.73 700.719C6944 698.795 6940.46 695.649 6938.12 691.281C6935.78 686.913 6934.61 681.921 6934.61 676.305V668.817H6941.71V676.305ZM6975.72 704.541H6967.06V664.839H6975.72V704.541ZM6969.48 688.161H6959.41V680.673H6969.48V688.161ZM6961.99 702.513H6953.56V666.087H6961.99V702.513ZM6954.11 705.477C6960.82 705.477 6966.15 706.569 6970.1 708.753C6974.1 710.937 6976.11 713.901 6976.11 717.645C6976.11 720.141 6975.2 722.325 6973.38 724.197C6971.61 726.017 6969.06 727.421 6965.73 728.409C6962.4 729.397 6958.53 729.891 6954.11 729.891C6947.4 729.891 6942.07 728.799 6938.12 726.615C6934.17 724.431 6932.19 721.441 6932.19 717.645C6932.19 713.901 6934.17 710.937 6938.12 708.753C6942.07 706.569 6947.4 705.477 6954.11 705.477ZM6954.11 712.419C6950 712.419 6946.86 712.861 6944.67 713.745C6942.49 714.629 6941.4 715.929 6941.4 717.645C6941.4 721.077 6945.63 722.793 6954.11 722.793C6958.22 722.793 6961.36 722.377 6963.55 721.545C6965.78 720.661 6966.9 719.361 6966.9 717.645C6966.9 715.929 6965.78 714.629 6963.55 713.745C6961.36 712.861 6958.22 712.419 6954.11 712.419Z" fill="#FF0091"/>
<path d="M6549.09 628.114V624.877C6573.16 602.882 6576.06 596.574 6575.81 587.195C6575.57 577.65 6570.34 574.662 6564.44 574.911C6558.55 575.16 6554.65 578.978 6552.24 583.377L6549.01 581.551C6552.49 575.741 6558.72 571.508 6565.77 571.259C6580.55 570.678 6585.28 578.729 6585.28 587.444C6585.28 597.155 6575.65 604.625 6558.97 620.561L6559.05 620.727H6585.69V628.114H6549.09ZM6639.55 600.475C6639.55 617.739 6631.58 629.11 6617.39 629.11C6603.19 629.11 6595.22 617.739 6595.22 600.475C6595.22 583.211 6603.19 571.923 6617.39 571.923C6631.58 571.923 6639.55 583.211 6639.55 600.475ZM6604.69 600.475C6604.69 617.241 6609.33 626.205 6617.39 626.205C6625.44 626.205 6630.08 617.241 6630.08 600.475C6630.08 583.709 6625.44 574.662 6617.39 574.662C6609.33 574.662 6604.69 583.709 6604.69 600.475ZM6648.46 628.114V624.877C6672.53 602.882 6675.44 596.574 6675.19 587.195C6674.94 577.65 6669.71 574.662 6663.82 574.911C6657.92 575.16 6654.02 578.978 6651.62 583.377L6648.38 581.551C6651.86 575.741 6658.09 571.508 6665.14 571.259C6679.92 570.678 6684.65 578.729 6684.65 587.444C6684.65 597.155 6675.02 604.625 6658.34 620.561L6658.42 620.727H6685.06V628.114H6648.46ZM6717.19 628.197V615.498H6691.3V609.439L6722.34 570.429H6725.49V608.36H6734.37V615.498H6725.49V628.197H6717.19ZM6696.36 608.36H6717.19V582.215H6717.03L6696.36 608.36ZM6743.5 600.475V596.159H6777.53V600.475H6743.5ZM6832.21 600.475C6832.21 617.739 6824.25 629.11 6810.05 629.11C6795.86 629.11 6787.89 617.739 6787.89 600.475C6787.89 583.211 6795.86 571.923 6810.05 571.923C6824.25 571.923 6832.21 583.211 6832.21 600.475ZM6797.35 600.475C6797.35 617.241 6802 626.205 6810.05 626.205C6818.1 626.205 6822.75 617.241 6822.75 600.475C6822.75 583.709 6818.1 574.662 6810.05 574.662C6802 574.662 6797.35 583.709 6797.35 600.475ZM6860.05 571.176V628.114H6851.34V579.31L6843.29 584.622L6841.38 581.717L6858.14 571.176H6860.05Z" fill="#FF0091"/>
<path d="M3013.64 467.683H3004.51V419.011H3013.64V467.683ZM3022.06 446.467H3011.06V438.901H3022.06V446.467ZM3000.92 433.129H2963.4V425.797H3000.92V433.129ZM2982.2 435.391C2985.22 435.391 2987.9 435.937 2990.24 437.029C2992.63 438.069 2994.47 439.551 2995.77 441.475C2997.13 443.347 2997.8 445.505 2997.8 447.949C2997.8 450.445 2997.13 452.629 2995.77 454.501C2994.47 456.373 2992.63 457.829 2990.24 458.869C2987.9 459.909 2985.22 460.429 2982.2 460.429C2977.52 460.429 2973.73 459.285 2970.81 456.997C2967.95 454.709 2966.52 451.693 2966.52 447.949C2966.52 445.505 2967.17 443.321 2968.47 441.397C2969.83 439.473 2971.67 437.991 2974.01 436.951C2976.4 435.911 2979.13 435.391 2982.2 435.391ZM2982.2 442.489C2980.12 442.489 2978.46 442.983 2977.21 443.971C2976.01 444.907 2975.42 446.233 2975.42 447.949C2975.42 449.717 2976.01 451.069 2977.21 452.005C2978.46 452.889 2980.12 453.331 2982.2 453.331C2984.28 453.331 2985.92 452.889 2987.12 452.005C2988.36 451.069 2988.99 449.717 2988.99 447.949C2988.99 446.233 2988.36 444.907 2987.12 443.971C2985.92 442.983 2984.28 442.489 2982.2 442.489ZM2986.88 429.385H2977.6V419.011H2986.88V429.385ZM3015.82 482.893H2972.53V475.483H3015.82V482.893ZM2981.58 478.603H2972.53V463.939H2981.58V478.603ZM3070.85 429.229H3030.45V421.741H3070.85V429.229ZM3081.23 451.693H3023.43V444.127H3081.23V451.693ZM3056.89 463.081H3047.61V449.509H3056.89V463.081ZM3074.52 426.889C3074.52 430.789 3074.39 434.273 3074.13 437.341C3073.92 440.409 3073.37 443.815 3072.49 447.559L3063.44 446.779C3064.33 443.035 3064.87 439.707 3065.08 436.795C3065.29 433.883 3065.39 430.581 3065.39 426.889V421.741H3074.52V426.889ZM3074.52 484.063H3065.31V468.073H3029.28V460.819H3074.52V484.063ZM3112.31 422.209C3116.78 422.209 3120.81 422.989 3124.4 424.549C3128.04 426.109 3130.9 428.319 3132.98 431.179C3135.11 434.039 3136.18 437.315 3136.18 441.007C3136.18 444.699 3135.11 447.975 3132.98 450.835C3130.9 453.695 3128.04 455.905 3124.4 457.465C3120.81 459.025 3116.78 459.805 3112.31 459.805C3107.84 459.805 3103.78 459.025 3100.14 457.465C3096.56 455.905 3093.72 453.695 3091.64 450.835C3089.56 447.975 3088.52 444.699 3088.52 441.007C3088.52 437.315 3089.56 434.039 3091.64 431.179C3093.72 428.319 3096.56 426.109 3100.14 424.549C3103.78 422.989 3107.84 422.209 3112.31 422.209ZM3112.31 429.775C3107.94 429.775 3104.36 430.789 3101.55 432.817C3098.79 434.845 3097.41 437.575 3097.41 441.007C3097.41 444.439 3098.79 447.143 3101.55 449.119C3104.3 451.095 3107.89 452.083 3112.31 452.083C3116.73 452.083 3120.32 451.095 3123.08 449.119C3125.83 447.143 3127.21 444.439 3127.21 441.007C3127.21 437.575 3125.83 434.845 3123.08 432.817C3120.32 430.789 3116.73 429.775 3112.31 429.775ZM3141.25 476.185H3083.45V468.541H3141.25V476.185ZM3201.27 476.887H3143.47V469.243H3201.27V476.887ZM3176.86 472.285H3167.73V456.997H3176.86V472.285ZM3194.72 444.829H3159.23V455.671H3150.1V437.575H3185.59V430.711H3150.03V423.145H3194.72V444.829ZM3196.12 459.493H3150.1V451.927H3196.12V459.493ZM3251.89 449.821H3242.61V437.341H3251.89V449.821ZM3269.36 441.163H3225.6V433.831H3269.36V441.163ZM3268.82 428.527H3234.81V437.887H3225.6V421.117H3268.82V428.527ZM3276.07 452.629H3218.43V445.375H3276.07V452.629ZM3269.13 472.753H3234.18V478.525H3225.14V466.357H3260.08V462.925H3225.06V456.061H3269.13V472.753ZM3270.69 483.517H3225.14V476.497H3270.69V483.517ZM3295.53 423.457C3298.76 423.457 3301.64 424.419 3304.19 426.343C3306.74 428.267 3308.72 430.997 3310.12 434.533C3311.58 438.017 3312.3 442.099 3312.3 446.779C3312.3 451.459 3311.58 455.567 3310.12 459.103C3308.72 462.587 3306.74 465.291 3304.19 467.215C3301.64 469.087 3298.76 470.023 3295.53 470.023C3292.31 470.023 3289.42 469.087 3286.88 467.215C3284.38 465.291 3282.4 462.587 3280.95 459.103C3279.54 455.567 3278.84 451.459 3278.84 446.779C3278.84 442.099 3279.54 437.991 3280.95 434.455C3282.4 430.919 3284.38 428.215 3286.88 426.343C3289.42 424.419 3292.31 423.457 3295.53 423.457ZM3295.53 431.959C3293.14 431.959 3291.22 433.259 3289.76 435.859C3288.31 438.407 3287.58 442.047 3287.58 446.779C3287.58 451.459 3288.31 455.073 3289.76 457.621C3291.22 460.169 3293.14 461.443 3295.53 461.443C3297.98 461.443 3299.9 460.169 3301.31 457.621C3302.76 455.073 3303.49 451.459 3303.49 446.779C3303.49 442.047 3302.76 438.407 3301.31 435.859C3299.9 433.259 3297.98 431.959 3295.53 431.959ZM3328.45 484.063H3319.25V418.933H3328.45V484.063ZM3337.65 451.147H3326.42V443.425H3337.65V451.147ZM3371.7 452.239H3362.65V442.723H3371.7V452.239ZM3367.33 419.947C3374.41 419.947 3380 421.065 3384.1 423.301C3388.21 425.537 3390.27 428.605 3390.27 432.505C3390.27 436.405 3388.21 439.499 3384.1 441.787C3380 444.023 3374.41 445.141 3367.33 445.141C3360.26 445.141 3354.65 444.023 3350.49 441.787C3346.33 439.499 3344.25 436.405 3344.25 432.505C3344.25 428.605 3346.33 425.537 3350.49 423.301C3354.65 421.065 3360.26 419.947 3367.33 419.947ZM3367.33 427.123C3362.97 427.123 3359.59 427.591 3357.19 428.527C3354.85 429.411 3353.68 430.737 3353.68 432.505C3353.68 436.145 3358.23 437.965 3367.33 437.965C3371.7 437.965 3375.06 437.523 3377.4 436.639C3379.74 435.703 3380.91 434.325 3380.91 432.505C3380.91 430.737 3379.74 429.411 3377.4 428.527C3375.06 427.591 3371.7 427.123 3367.33 427.123ZM3389.25 483.361H3345.18V461.131H3389.25V483.361ZM3354.23 475.873H3380.28V468.541H3354.23V475.873ZM3396.12 456.919H3338.47V449.509H3396.12V456.919Z" fill="#FF0091"/>
<path d="M2966.14 382.285V379.048C2990.21 357.053 2993.11 350.745 2992.86 341.366C2992.61 331.821 2987.38 328.833 2981.49 329.082C2975.6 329.331 2971.7 333.149 2969.29 337.548L2966.05 335.722C2969.54 329.912 2975.76 325.679 2982.82 325.43C2997.59 324.849 3002.32 332.9 3002.32 341.615C3002.32 351.326 2992.7 358.796 2976.01 374.732L2976.1 374.898H3002.74V382.285H2966.14ZM3056.59 354.646C3056.59 371.91 3048.63 383.281 3034.43 383.281C3020.24 383.281 3012.27 371.91 3012.27 354.646C3012.27 337.382 3020.24 326.094 3034.43 326.094C3048.63 326.094 3056.59 337.382 3056.59 354.646ZM3021.73 354.646C3021.73 371.412 3026.38 380.376 3034.43 380.376C3042.48 380.376 3047.13 371.412 3047.13 354.646C3047.13 337.88 3042.48 328.833 3034.43 328.833C3026.38 328.833 3021.73 337.88 3021.73 354.646ZM3065.51 382.285V379.048C3089.58 357.053 3092.48 350.745 3092.23 341.366C3091.99 331.821 3086.76 328.833 3080.86 329.082C3074.97 329.331 3071.07 333.149 3068.66 337.548L3065.43 335.722C3068.91 329.912 3075.14 325.679 3082.19 325.43C3096.97 324.849 3101.7 332.9 3101.7 341.615C3101.7 351.326 3092.07 358.796 3075.39 374.732L3075.47 374.898H3102.11V382.285H3065.51ZM3155.97 354.646C3155.97 371.91 3148 383.281 3133.81 383.281C3119.61 383.281 3111.64 371.91 3111.64 354.646C3111.64 337.382 3119.61 326.094 3133.81 326.094C3148 326.094 3155.97 337.382 3155.97 354.646ZM3121.11 354.646C3121.11 371.412 3125.75 380.376 3133.81 380.376C3141.86 380.376 3146.5 371.412 3146.5 354.646C3146.5 337.88 3141.86 328.833 3133.81 328.833C3125.75 328.833 3121.11 337.88 3121.11 354.646ZM3166.79 354.646V350.33H3200.82V354.646H3166.79ZM3229.44 325.347V382.285H3220.72V333.481L3212.67 338.793L3210.76 335.888L3227.53 325.347H3229.44ZM3287.84 354.646C3287.84 371.91 3279.87 383.281 3265.68 383.281C3251.49 383.281 3243.52 371.91 3243.52 354.646C3243.52 337.382 3251.49 326.094 3265.68 326.094C3279.87 326.094 3287.84 337.382 3287.84 354.646ZM3252.98 354.646C3252.98 371.412 3257.63 380.376 3265.68 380.376C3273.73 380.376 3278.38 371.412 3278.38 354.646C3278.38 337.88 3273.73 328.833 3265.68 328.833C3257.63 328.833 3252.98 337.88 3252.98 354.646ZM3298.67 354.646V350.33H3332.7V354.646H3298.67ZM3352.02 351.575H3353.35C3359.57 351.575 3366.79 346.429 3366.79 339.208C3366.79 332.236 3362.64 328.667 3357.17 328.667C3352.27 328.667 3348.53 329.746 3344.3 335.888L3341.48 334.228C3345.05 329.331 3350.03 325.513 3358.91 325.513C3371.44 325.513 3375.92 331.157 3375.92 338.876C3375.92 345.267 3370.11 349.666 3363.14 352.073V352.82C3371.69 353.982 3378 357.302 3378 366.598C3378 376.558 3368.7 383.779 3357.75 383.779C3348.2 383.779 3345.05 381.953 3340.15 377.554L3342.56 375.23C3347.87 380.127 3351.52 380.459 3356.58 380.459C3364.22 380.459 3368.04 374.732 3368.04 367.013C3368.04 360.041 3364.72 355.227 3354.84 355.227H3352.02V351.575ZM3404.11 325.347V382.285H3395.4V333.481L3387.35 338.793L3385.44 335.888L3402.2 325.347H3404.11Z" fill="#FF0091"/>
<path d="M2256.23 708.831H2247.1V697.443H2256.23V708.831ZM2280.49 701.733H2222.85V694.323H2280.49V701.733ZM2251.63 706.335C2258.49 706.335 2263.87 707.375 2267.77 709.455C2271.67 711.483 2273.62 714.369 2273.62 718.113C2273.62 721.857 2271.67 724.743 2267.77 726.771C2263.87 728.851 2258.49 729.891 2251.63 729.891C2244.66 729.891 2239.2 728.851 2235.25 726.771C2231.35 724.743 2229.4 721.857 2229.4 718.113C2229.4 714.369 2231.35 711.483 2235.25 709.455C2239.2 707.375 2244.66 706.335 2251.63 706.335ZM2251.63 713.433C2247.26 713.433 2244.01 713.823 2241.88 714.603C2239.8 715.331 2238.76 716.501 2238.76 718.113C2238.76 721.233 2243.05 722.793 2251.63 722.793C2260.16 722.793 2264.42 721.233 2264.42 718.113C2264.42 714.993 2260.16 713.433 2251.63 713.433ZM2253.42 672.561C2253.42 675.837 2252.46 678.853 2250.54 681.609C2248.66 684.313 2245.86 686.575 2242.11 688.395C2238.37 690.215 2233.82 691.385 2228.46 691.905L2225.42 684.495C2229.84 684.131 2233.53 683.351 2236.5 682.155C2239.51 680.907 2241.75 679.451 2243.2 677.787C2244.66 676.071 2245.39 674.329 2245.39 672.561V670.923H2253.42V672.561ZM2257.87 672.561C2257.87 674.329 2258.6 676.071 2260.05 677.787C2261.51 679.451 2263.74 680.907 2266.76 682.155C2269.83 683.351 2273.6 684.131 2278.07 684.495L2274.87 691.905C2269.57 691.385 2265.04 690.215 2261.3 688.395C2257.56 686.575 2254.72 684.313 2252.8 681.609C2250.87 678.853 2249.91 675.837 2249.91 672.561V670.923H2257.87V672.561ZM2275.26 674.901H2228.23V667.491H2275.26V674.901ZM2330.29 675.057H2289.89V667.569H2330.29V675.057ZM2340.67 697.521H2282.87V689.955H2340.67V697.521ZM2316.33 708.909H2307.05V695.337H2316.33V708.909ZM2333.96 672.717C2333.96 676.617 2333.83 680.101 2333.57 683.169C2333.36 686.237 2332.82 689.643 2331.93 693.387L2322.88 692.607C2323.77 688.863 2324.31 685.535 2324.52 682.623C2324.73 679.711 2324.83 676.409 2324.83 672.717V667.569H2333.96V672.717ZM2333.96 729.891H2324.76V713.901H2288.72V706.647H2333.96V729.891ZM2371.75 668.037C2376.22 668.037 2380.25 668.817 2383.84 670.377C2387.48 671.937 2390.34 674.147 2392.42 677.007C2394.55 679.867 2395.62 683.143 2395.62 686.835C2395.62 690.527 2394.55 693.803 2392.42 696.663C2390.34 699.523 2387.48 701.733 2383.84 703.293C2380.25 704.853 2376.22 705.633 2371.75 705.633C2367.28 705.633 2363.22 704.853 2359.58 703.293C2356 701.733 2353.16 699.523 2351.08 696.663C2349 693.803 2347.96 690.527 2347.96 686.835C2347.96 683.143 2349 679.867 2351.08 677.007C2353.16 674.147 2356 671.937 2359.58 670.377C2363.22 668.817 2367.28 668.037 2371.75 668.037ZM2371.75 675.603C2367.38 675.603 2363.8 676.617 2360.99 678.645C2358.23 680.673 2356.85 683.403 2356.85 686.835C2356.85 690.267 2358.23 692.971 2360.99 694.947C2363.74 696.923 2367.33 697.911 2371.75 697.911C2376.17 697.911 2379.76 696.923 2382.52 694.947C2385.27 692.971 2386.65 690.267 2386.65 686.835C2386.65 683.403 2385.27 680.673 2382.52 678.645C2379.76 676.617 2376.17 675.603 2371.75 675.603ZM2400.69 722.013H2342.89V714.369H2400.69V722.013ZM2460.71 722.715H2402.92V715.071H2460.71V722.715ZM2436.3 718.113H2427.17V702.825H2436.3V718.113ZM2454.16 690.657H2418.67V701.499H2409.55V683.403H2445.04V676.539H2409.47V668.973H2454.16V690.657ZM2455.57 705.321H2409.55V697.755H2455.57V705.321ZM2530.83 729.969H2521.55V664.761H2530.83V729.969ZM2496.43 669.285C2499.61 669.285 2502.47 670.247 2505.01 672.171C2507.56 674.095 2509.54 676.825 2510.94 680.361C2512.4 683.845 2513.13 687.927 2513.13 692.607C2513.13 697.287 2512.4 701.395 2510.94 704.931C2509.54 708.415 2507.56 711.119 2505.01 713.043C2502.47 714.915 2499.61 715.851 2496.43 715.851C2493.21 715.851 2490.32 714.915 2487.78 713.043C2485.23 711.119 2483.23 708.415 2481.77 704.931C2480.37 701.395 2479.66 697.287 2479.66 692.607C2479.66 687.927 2480.37 683.845 2481.77 680.361C2483.23 676.825 2485.23 674.095 2487.78 672.171C2490.32 670.247 2493.21 669.285 2496.43 669.285ZM2496.43 677.787C2493.99 677.787 2492.07 679.061 2490.66 681.609C2489.26 684.157 2488.56 687.823 2488.56 692.607C2488.56 697.339 2489.26 700.979 2490.66 703.527C2492.07 706.023 2493.99 707.271 2496.43 707.271C2498.88 707.271 2500.8 706.023 2502.21 703.527C2503.61 700.979 2504.31 697.339 2504.31 692.607C2504.31 687.875 2503.61 684.235 2502.21 681.687C2500.8 679.087 2498.88 677.787 2496.43 677.787ZM2572.06 701.421H2541.09V669.987H2572.06V701.421ZM2550.14 694.011H2563.01V677.319H2550.14V694.011ZM2590.85 711.093H2581.73V664.839H2590.85V711.093ZM2592.57 728.487H2548.42V720.999H2592.57V728.487ZM2557.63 724.275H2548.42V706.881H2557.63V724.275Z" fill="#FF0091"/>
<path d="M2225.58 628.114V624.877C2249.65 602.882 2252.55 596.574 2252.3 587.195C2252.05 577.65 2246.82 574.662 2240.93 574.911C2235.04 575.16 2231.14 578.978 2228.73 583.377L2225.49 581.551C2228.98 575.741 2235.2 571.508 2242.26 571.259C2257.03 570.678 2261.76 578.729 2261.76 587.444C2261.76 597.155 2252.14 604.625 2235.45 620.561L2235.54 620.727H2262.18V628.114H2225.58ZM2316.03 600.475C2316.03 617.739 2308.07 629.11 2293.87 629.11C2279.68 629.11 2271.71 617.739 2271.71 600.475C2271.71 583.211 2279.68 571.923 2293.87 571.923C2308.07 571.923 2316.03 583.211 2316.03 600.475ZM2281.17 600.475C2281.17 617.241 2285.82 626.205 2293.87 626.205C2301.92 626.205 2306.57 617.241 2306.57 600.475C2306.57 583.709 2301.92 574.662 2293.87 574.662C2285.82 574.662 2281.17 583.709 2281.17 600.475ZM2343.87 571.176V628.114H2335.16V579.31L2327.11 584.622L2325.2 581.717L2341.96 571.176H2343.87ZM2380.35 571.176V628.114H2371.63V579.31L2363.58 584.622L2361.67 581.717L2378.44 571.176H2380.35ZM2453.88 585.701V582.298H2464.67V566.86H2472.8V629.857H2464.67V604.542H2451.14V601.139H2464.67V585.701H2453.88ZM2419.19 575.16V572.089H2451.22V578.978C2449.56 596.574 2432.96 612.842 2418.36 619.15L2417.44 617.158C2430.31 610.767 2441.26 595.495 2442.43 578.729V575.16H2419.19ZM2514.5 564.868C2528.44 564.868 2535.99 569.35 2535.99 577.401V578.231C2535.99 586.033 2528.69 590.764 2514.5 590.764C2500.55 590.764 2493.08 586.282 2493.08 578.231V577.401C2493.08 569.599 2500.8 564.868 2514.5 564.868ZM2514.5 588.357C2523.79 588.357 2527.61 583.958 2527.61 578.065V577.567C2527.61 571.176 2523.54 567.275 2514.5 567.275C2505.95 567.275 2501.46 571.425 2501.46 577.567V578.065C2501.46 583.709 2505.45 588.357 2514.5 588.357ZM2483.2 599.562V596.574H2541.97L2544.21 596.242L2545.54 599.562H2517.98V608.443H2535.49V622.387H2500.14V631.351H2538.32L2539.31 634.422H2492.09V619.399H2527.44V611.514H2491.5V608.443H2509.85V599.562H2483.2Z" fill="#FF0091"/>
<path d="M177.123 428.137C177.123 435.001 175.615 441.007 172.599 446.155C169.583 451.303 165.059 454.917 159.027 456.997L154.191 449.509C159.391 447.793 163.239 445.011 165.735 441.163C168.283 437.315 169.557 432.973 169.557 428.137V422.287H177.123V428.137ZM178.917 427.669C178.917 432.297 180.087 436.405 182.427 439.993C184.767 443.529 188.355 446.103 193.191 447.715L188.433 454.969C182.661 452.993 178.397 449.639 175.641 444.907C172.885 440.123 171.507 434.377 171.507 427.669V422.287H178.917V427.669ZM208.167 456.997H198.963V418.933H208.167V456.997ZM186.405 458.791C193.217 458.791 198.547 459.909 202.395 462.145C206.295 464.381 208.245 467.475 208.245 471.427C208.245 475.379 206.295 478.473 202.395 480.709C198.547 482.945 193.217 484.063 186.405 484.063C179.697 484.063 174.419 482.945 170.571 480.709C166.723 478.473 164.799 475.379 164.799 471.427C164.799 467.475 166.723 464.381 170.571 462.145C174.419 459.909 179.697 458.791 186.405 458.791ZM186.405 465.967C177.981 465.967 173.769 467.787 173.769 471.427C173.769 473.195 174.835 474.547 176.967 475.483C179.151 476.367 182.297 476.809 186.405 476.809C194.933 476.809 199.197 475.015 199.197 471.427C199.197 467.787 194.933 465.967 186.405 465.967ZM200.211 438.355H187.263V430.711H200.211V438.355ZM265.07 455.671H255.944V419.011H265.07V455.671ZM273.572 440.305H262.574V432.739H273.572V440.305ZM265.07 483.283H223.574V458.635H265.07V483.283ZM232.544 475.951H256.178V465.811H232.544V475.951ZM226.616 448.729H217.412V422.131H226.616V448.729ZM222.95 444.673C232.518 444.673 241.852 443.789 250.952 442.021L251.966 449.587C243.074 451.407 233.402 452.317 222.95 452.317H217.412V444.673H222.95ZM297.871 433.441C297.871 442.229 296.337 450.029 293.269 456.841C290.201 463.601 285.599 468.411 279.463 471.271L274.081 463.471C279.437 461.131 283.467 457.231 286.171 451.771C288.927 446.311 290.305 440.201 290.305 433.441V423.925H297.871V433.441ZM299.665 433.441C299.665 439.785 300.991 445.583 303.643 450.835C306.347 456.087 310.273 459.857 315.421 462.145L310.039 469.633C304.163 466.825 299.717 462.197 296.701 455.749C293.685 449.249 292.177 441.813 292.177 433.441V423.925H299.665V433.441ZM327.745 484.141H318.541V418.933H327.745V484.141ZM370.765 450.445H360.391V442.957H370.765V450.445ZM389.719 484.063H380.983V418.933H389.719V484.063ZM376.459 481.021H367.801V419.947H376.459V481.021ZM349.237 423.613C352.045 423.613 354.489 424.575 356.569 426.499C358.649 428.371 360.261 431.075 361.405 434.611C362.549 438.147 363.121 442.307 363.121 447.091C363.121 451.927 362.549 456.139 361.405 459.727C360.261 463.315 358.649 466.071 356.569 467.995C354.489 469.867 352.045 470.803 349.237 470.803C346.429 470.803 343.985 469.867 341.905 467.995C339.825 466.071 338.213 463.315 337.069 459.727C335.977 456.139 335.431 451.927 335.431 447.091C335.431 442.255 335.977 438.095 337.069 434.611C338.213 431.075 339.825 428.371 341.905 426.499C343.985 424.575 346.429 423.613 349.237 423.613ZM349.237 432.427C347.521 432.427 346.195 433.649 345.259 436.093C344.323 438.537 343.855 442.203 343.855 447.091C343.855 456.919 345.649 461.833 349.237 461.833C352.877 461.833 354.697 456.919 354.697 447.091C354.697 442.203 354.229 438.537 353.293 436.093C352.357 433.649 351.005 432.427 349.237 432.427ZM443.736 446.857H427.044V439.291H443.736V446.857ZM417.06 433.441C417.06 442.021 415.604 449.691 412.692 456.451C409.78 463.211 405.438 468.047 399.666 470.959L394.05 463.393C399.198 460.949 403.072 456.997 405.672 451.537C408.324 446.077 409.65 440.045 409.65 433.441V423.925H417.06V433.441ZM418.932 433.441C418.932 439.941 420.206 445.817 422.754 451.069C425.302 456.321 429.072 460.091 434.064 462.379L428.604 469.867C422.884 467.007 418.62 462.379 415.812 455.983C413.056 449.535 411.678 442.021 411.678 433.441V423.925H418.932V433.441ZM448.338 484.141H439.212V418.933H448.338V484.141ZM503.245 461.365H494.119V452.083H503.245V461.365ZM527.425 453.409H470.095V446.623H527.425V453.409ZM503.167 426.733H494.041V418.933H503.167V426.733ZM501.529 428.449C501.529 433.181 499.241 437.003 494.665 439.915C490.089 442.775 483.433 444.439 474.697 444.907L472.279 438.121C479.455 437.809 484.785 436.743 488.269 434.923C491.753 433.103 493.495 430.945 493.495 428.449V427.201H501.529V428.449ZM503.791 428.449C503.791 430.945 505.507 433.103 508.939 434.923C512.423 436.743 517.805 437.809 525.085 438.121L522.511 444.907C513.879 444.439 507.249 442.775 502.621 439.915C498.045 437.003 495.757 433.181 495.757 428.449V427.201H503.791V428.449ZM522.043 430.867H475.477V424.003H522.043V430.867ZM520.561 473.377H485.617V479.539H476.569V467.137H511.513V464.017H476.491V457.387H520.561V473.377ZM522.121 483.595H476.569V476.809H522.121V483.595ZM548.449 430.477C548.449 436.405 547.227 441.787 544.783 446.623C542.391 451.407 538.751 454.839 533.863 456.919L529.027 449.743C533.187 447.819 536.255 445.115 538.231 441.631C540.259 438.147 541.273 434.429 541.273 430.477V422.989H548.449V430.477ZM550.165 430.477C550.165 434.221 551.127 437.653 553.051 440.773C555.027 443.841 557.991 446.155 561.943 447.715L557.185 454.891C552.453 452.967 548.917 449.821 546.577 445.453C544.237 441.085 543.067 436.093 543.067 430.477V422.989H550.165V430.477ZM584.173 458.713H575.515V419.011H584.173V458.713ZM577.933 442.333H567.871V434.845H577.933V442.333ZM570.445 456.685H562.021V420.259H570.445V456.685ZM562.567 459.649C569.275 459.649 574.605 460.741 578.557 462.925C582.561 465.109 584.563 468.073 584.563 471.817C584.563 474.313 583.653 476.497 581.833 478.369C580.065 480.189 577.517 481.593 574.189 482.581C570.861 483.569 566.987 484.063 562.567 484.063C555.859 484.063 550.529 482.971 546.577 480.787C542.625 478.603 540.649 475.613 540.649 471.817C540.649 468.073 542.625 465.109 546.577 462.925C550.529 460.741 555.859 459.649 562.567 459.649ZM562.567 466.591C558.459 466.591 555.313 467.033 553.129 467.917C550.945 468.801 549.853 470.101 549.853 471.817C549.853 475.249 554.091 476.965 562.567 476.965C566.675 476.965 569.821 476.549 572.005 475.717C574.241 474.833 575.359 473.533 575.359 471.817C575.359 470.101 574.241 468.801 572.005 467.917C569.821 467.033 566.675 466.591 562.567 466.591Z" fill="#FF0091"/>
<path d="M157.546 382.285V379.048C181.616 357.053 184.521 350.745 184.272 341.366C184.023 331.821 178.794 328.833 172.901 329.082C167.008 329.331 163.107 333.149 160.7 337.548L157.463 335.722C160.949 329.912 167.174 325.679 174.229 325.43C189.003 324.849 193.734 332.9 193.734 341.615C193.734 351.326 184.106 358.796 167.423 374.732L167.506 374.898H194.149V382.285H157.546ZM248.003 354.646C248.003 371.91 240.035 383.281 225.842 383.281C211.649 383.281 203.681 371.91 203.681 354.646C203.681 337.382 211.649 326.094 225.842 326.094C240.035 326.094 248.003 337.382 248.003 354.646ZM213.143 354.646C213.143 371.412 217.791 380.376 225.842 380.376C233.893 380.376 238.541 371.412 238.541 354.646C238.541 337.88 233.893 328.833 225.842 328.833C217.791 328.833 213.143 337.88 213.143 354.646ZM301.905 354.646C301.905 371.91 293.937 383.281 279.744 383.281C265.551 383.281 257.583 371.91 257.583 354.646C257.583 337.382 265.551 326.094 279.744 326.094C293.937 326.094 301.905 337.382 301.905 354.646ZM267.045 354.646C267.045 371.412 271.693 380.376 279.744 380.376C287.795 380.376 292.443 371.412 292.443 354.646C292.443 337.88 287.795 328.833 279.744 328.833C271.693 328.833 267.045 337.88 267.045 354.646ZM310.82 382.285V379.048C334.89 357.053 337.795 350.745 337.546 341.366C337.297 331.821 332.068 328.833 326.175 329.082C320.282 329.331 316.381 333.149 313.974 337.548L310.737 335.722C314.223 329.912 320.448 325.679 327.503 325.43C342.277 324.849 347.008 332.9 347.008 341.615C347.008 351.326 337.38 358.796 320.697 374.732L320.78 374.898H347.423V382.285H310.82ZM358.201 354.646V350.33H392.231V354.646H358.201ZM446.911 354.646C446.911 371.91 438.943 383.281 424.75 383.281C410.557 383.281 402.589 371.91 402.589 354.646C402.589 337.382 410.557 326.094 424.75 326.094C438.943 326.094 446.911 337.382 446.911 354.646ZM412.051 354.646C412.051 371.412 416.699 380.376 424.75 380.376C432.801 380.376 437.449 371.412 437.449 354.646C437.449 337.88 432.801 328.833 424.75 328.833C416.699 328.833 412.051 337.88 412.051 354.646ZM474.751 325.347V382.285H466.036V333.481L457.985 338.793L456.076 335.888L472.842 325.347H474.751ZM490.077 354.646V350.33H524.107V354.646H490.077ZM552.725 325.347V382.285H544.01V333.481L535.959 338.793L534.05 335.888L550.816 325.347H552.725ZM575.77 351.575H577.098C583.323 351.575 590.544 346.429 590.544 339.208C590.544 332.236 586.394 328.667 580.916 328.667C576.019 328.667 572.284 329.746 568.051 335.888L565.229 334.228C568.798 329.331 573.778 325.513 582.659 325.513C595.192 325.513 599.674 331.157 599.674 338.876C599.674 345.267 593.864 349.666 586.892 352.073V352.82C595.441 353.982 601.749 357.302 601.749 366.598C601.749 376.558 592.453 383.779 581.497 383.779C571.952 383.779 568.798 381.953 563.901 377.554L566.308 375.23C571.62 380.127 575.272 380.459 580.335 380.459C587.971 380.459 591.789 374.732 591.789 367.013C591.789 360.041 588.469 355.227 578.592 355.227H575.77V351.575Z" fill="#FF0091"/>
</svg>
